<?xml version="1.0" encoding="UTF-8"?>
<svg version="1.1" xmlns="http://www.w3.org/2000/svg" width="1920" height="1080">
<path d="M0 0 C180.22526316 0 180.22526316 0 213 28 C214.19882812 28.96486328 214.19882812 28.96486328 215.421875 29.94921875 C233.46238765 45.1043699 243.80412679 68.55093695 245.85498047 91.79394531 C247.81026044 121.53790119 243.36310712 151.41457321 223.19140625 174.58984375 C222.46824219 175.38519531 221.74507812 176.18054688 221 177 C220.41089844 177.68191406 219.82179688 178.36382813 219.21484375 179.06640625 C209.63489492 189.48854838 196.48825686 196.64545747 184 203 C189.3780412 213.81291176 194.83633175 224.58103656 200.375 235.3125 C200.74639099 236.03288452 201.11778198 236.75326904 201.50042725 237.4954834 C206.04584812 246.31174502 210.61344549 255.11512212 215.25341797 263.88208008 C219.04909363 271.06384335 222.77352654 278.28218935 226.5 285.5 C230.65973909 293.55641979 234.82812627 301.6074563 239.0625 309.625 C239.83213935 311.08718269 240.6016676 312.54942386 241.37109375 314.01171875 C243.15447394 317.40021214 244.94658383 320.78398311 246.74137878 324.16644287 C248.05098884 326.63956925 249.35331452 329.11648731 250.65426636 331.59417725 C251.29658881 332.81388112 251.94183183 334.03205183 252.59011841 335.24859619 C253.49738053 336.95206192 254.39344756 338.66147568 255.2890625 340.37109375 C255.81193848 341.36036865 256.33481445 342.34964355 256.87353516 343.36889648 C258 346 258 346 258 350 C233.58 350 209.16 350 184 350 C178.09287109 338.16833984 178.09287109 338.16833984 172.06640625 326.09765625 C169.23566549 320.43040736 166.40466789 314.76328734 163.57330227 309.09635067 C159.91596179 301.77615276 156.25920613 294.45566475 152.60473633 287.1340332 C149.7089059 281.33232006 146.81160983 275.53134149 143.91264194 269.73119539 C142.38157138 266.66776482 140.8511755 263.6040019 139.32254219 260.53935432 C137.60438537 257.09567417 135.88364111 253.65329776 134.16235352 250.21118164 C133.67106964 249.22501862 133.17978577 248.23885559 132.6736145 247.22280884 C128.25568141 238.39950183 123.62137314 229.72926037 119 221 C94.25 220.505 94.25 220.505 69 220 C69 262.9 69 305.8 69 350 C46.23 350 23.46 350 0 350 C0 234.5 0 119 0 0 Z M69 56 C69 91.64 69 127.28 69 164 C83.6025 164.12375 83.6025 164.12375 98.5 164.25 C101.53896484 164.28641602 104.57792969 164.32283203 107.70898438 164.36035156 C128.8247854 164.50775606 147.68074505 163.63866536 163.7421875 148.3828125 C175.6938428 135.76947387 177.41593777 121.08432837 177.20703125 104.46875 C176.83486167 91.00671409 172.10561901 78.40349962 162.1875 69 C149.00869778 58.17596875 133.39338177 55.34408756 116.75390625 55.609375 C115.53054565 55.61340332 114.30718506 55.61743164 113.04675293 55.62158203 C108.55184559 55.64223865 104.05715494 55.69807984 99.5625 55.75 C89.476875 55.8325 79.39125 55.915 69 56 Z " fill="#684999" transform="translate(399,340)"/>
<path d="M0 0 C77.88 0 155.76 0 236 0 C236 18.48 236 36.96 236 56 C180.56 56 125.12 56 68 56 C68 84.71 68 113.42 68 143 C115.52 143 163.04 143 212 143 C212 160.82 212 178.64 212 197 C164.48 197 116.96 197 68 197 C68 229.34 68 261.68 68 295 C123.44 295 178.88 295 236 295 C236 313.15 236 331.3 236 350 C158.12 350 80.24 350 0 350 C0 234.5 0 119 0 0 Z " fill="#4B50B3" transform="translate(108,340)"/>
<path d="M0 0 C19.13065567 16.49096579 30.60585146 41.06862628 33 66 C33 69.63 33 73.26 33 77 C10.89 77 -11.22 77 -34 77 C-34.99 71.39 -35.98 65.78 -37 60 C-41.8005816 46.13165315 -48.93293928 36.79549994 -62.1875 30.3125 C-81.65604062 22.10127878 -103.8151384 22.64636095 -123.36328125 30.3203125 C-134.96528259 35.60839779 -141.30153333 43.21318916 -146 55 C-148.84364068 66.01043801 -147.27060456 76.60575324 -141.6328125 86.3671875 C-126.94750074 107.48188949 -94.23129614 114.68492539 -71.20385742 121.25244141 C-33.73869692 131.98518672 2.19826946 151.49556719 22.375 186 C33.60914247 206.55755989 37.31381696 233.19222618 31.3125 256.0625 C30.59581504 258.39235041 29.82931662 260.70782326 29 263 C28.63777344 264.05574219 28.27554687 265.11148437 27.90234375 266.19921875 C18.82465331 290.23201955 -1.38463979 307.05712595 -24.13574219 317.55786133 C-62.14141676 334.28325934 -111.44403793 333.73000425 -149.98046875 319.1796875 C-179.12520989 307.59515111 -203.85271398 288.51742416 -217.46875 259.6796875 C-223.4466937 245.31432278 -226 230.54594962 -226 215 C-203.56 215 -181.12 215 -158 215 C-157.01 222.92 -157.01 222.92 -156 231 C-152.16616007 244.96613116 -145.77910309 256.09070887 -133.5 264.1875 C-113.73780075 275.24348647 -87.66304726 276.66881465 -66.0234375 271 C-54.16460402 267.07769849 -44.34253323 261.09606536 -38.5 249.8125 C-33.32704673 238.84871294 -33.83098764 227.33998005 -37.74609375 216.00390625 C-44.48922806 199.84979322 -59.34948938 191.51113603 -74.875 185.125 C-83.38537438 181.73108482 -92.089288 179.07860413 -100.875 176.5 C-140.09886378 164.97790582 -182.50280466 148.35081101 -204.25 111.2578125 C-215.78470897 89.7847159 -218.40577687 64.5039031 -212 41 C-203.85248957 15.10301581 -185.53239432 -3.41910602 -162 -16 C-111.78010983 -41.1664227 -43.21074375 -36.97616276 0 0 Z " fill="#BE334D" transform="translate(1501,366)"/>
<path d="M0 0 C18.04490152 15.87017298 31.17215591 35.53285575 35.78515625 59.3359375 C36.01203125 60.4496875 36.23890625 61.5634375 36.47265625 62.7109375 C36.97732957 68.565148 36.78515625 74.46001411 36.78515625 80.3359375 C15.00515625 80.3359375 -6.77484375 80.3359375 -29.21484375 80.3359375 C-31.19484375 71.4259375 -31.19484375 71.4259375 -33.21484375 62.3359375 C-37.06571907 50.89333654 -43.15381239 42.10541817 -53.5546875 35.6484375 C-70.48614915 27.29458858 -91.53307786 25.46316358 -109.83984375 30.171875 C-122.61175643 34.57700229 -132.79824401 40.1316207 -139.58984375 52.2734375 C-144.30536179 62.7685949 -144.21754354 73.3132792 -140.6640625 84.0859375 C-133.36746958 100.44918632 -113.46556814 108.85316673 -97.68774414 114.98022461 C-89.1906065 118.16177224 -80.55181834 120.74992688 -71.83984375 123.2734375 C-31.91780034 134.89986692 6.63059027 153.54449625 27.69384766 191.25976562 C39.51996009 213.75848153 40.95415841 240.63239236 33.75390625 264.796875 C29.13210976 277.69418548 22.38975673 288.59485957 12.78515625 298.3359375 C12.17285156 299.02042969 11.56054688 299.70492188 10.9296875 300.41015625 C-8.99435829 322.033481 -41.90187911 330.33119614 -70.21484375 332.3359375 C-110.50225005 333.94581453 -152.61197711 327.38343598 -184.21484375 300.3359375 C-185.08496094 299.61019531 -185.95507812 298.88445312 -186.8515625 298.13671875 C-206.38086603 281.22221737 -218.6411579 258.07279598 -221.21484375 232.3359375 C-221.21484375 227.7159375 -221.21484375 223.0959375 -221.21484375 218.3359375 C-199.10484375 218.3359375 -176.99484375 218.3359375 -154.21484375 218.3359375 C-153.22484375 224.6059375 -152.23484375 230.8759375 -151.21484375 237.3359375 C-146.27497208 251.48800227 -139.1020681 262.26881077 -125.71484375 269.5859375 C-105.7518126 278.8364835 -80.78942175 279.9561018 -59.83984375 273.5859375 C-47.61740256 269.0916613 -38.78445078 262.49388607 -33.16015625 250.66796875 C-29.1963569 240.88950508 -30.02750434 227.8108341 -33.83203125 218.11328125 C-43.7850596 198.12287686 -65.37919813 190.02411265 -85.43896484 183.22900391 C-90.70222716 181.53568697 -96.02558379 180.04719361 -101.33984375 178.5234375 C-131.62123403 169.7777093 -160.22196875 157.31212074 -183.21484375 135.3359375 C-184.35179687 134.31113281 -184.35179687 134.31113281 -185.51171875 133.265625 C-201.3047359 118.50732276 -210.34678367 96.82042449 -211.21484375 75.3359375 C-211.26640625 74.54960937 -211.31796875 73.76328125 -211.37109375 72.953125 C-212.19477719 50.50775121 -204.56919041 28.78044317 -189.65234375 11.9609375 C-188.1835275 10.40940634 -186.70512495 8.86686274 -185.21484375 7.3359375 C-184.62960937 6.70042969 -184.044375 6.06492187 -183.44140625 5.41015625 C-178.89416088 0.59605376 -173.74531613 -3.05249644 -168.21484375 -6.6640625 C-167.4671875 -7.16808594 -166.71953125 -7.67210937 -165.94921875 -8.19140625 C-119.3858024 -38.04584156 -42.72711137 -36.21295659 0 0 Z " fill="#DA2C34" transform="translate(1792.21484375,362.6640625)"/>
<path d="M0 0 C1.26191162 0.00563965 2.52382324 0.0112793 3.82397461 0.01708984 C37.4297867 0.44911263 69.8792944 10.98638881 93.875 35.3125 C113.5932268 57.07180018 125.875 88.85138012 125.875 118.3125 C103.435 118.3125 80.995 118.3125 57.875 118.3125 C55.895 107.4225 55.895 107.4225 53.875 96.3125 C50.1877637 83.3477014 45.16307642 72.05843572 33.5 64.625 C18.79755338 56.61532356 -0.00217006 54.48017364 -16.3125 58.5 C-31.90119021 63.78681411 -40.59575632 72.52951189 -48.25 86.9375 C-58.94744475 109.30229116 -60.28267621 133.73813943 -60.29296875 158.12109375 C-60.29619254 159.93693568 -60.2995574 161.75277736 -60.30305481 163.56861877 C-60.30901253 167.36337891 -60.31089834 171.15811639 -60.31030273 174.95288086 C-60.31020167 179.75290458 -60.32381173 184.55277854 -60.34107494 189.35276699 C-60.35234295 193.10320161 -60.35421742 196.8536018 -60.35369301 200.60405159 C-60.35485262 202.37020441 -60.3591567 204.13635875 -60.36702538 205.90249443 C-60.43335699 222.33630262 -60.00050347 239.25782347 -55.875 255.25 C-55.54967285 256.54635376 -55.54967285 256.54635376 -55.21777344 257.86889648 C-51.16797121 273.34369197 -44.58385409 288.08920394 -30.578125 296.91796875 C-29.76859375 297.37816406 -28.9590625 297.83835937 -28.125 298.3125 C-27.06539062 298.92544922 -27.06539062 298.92544922 -25.984375 299.55078125 C-11.98773331 306.67870063 7.40640423 305.4891934 22.19921875 301.25390625 C36.21322384 296.32343147 44.0652093 288.31353038 50.5625 275.125 C54.73478045 265.54619537 55.84215095 255.64099047 56.875 245.3125 C79.645 245.3125 102.415 245.3125 125.875 245.3125 C124.69192345 260.69249519 124.69192345 260.69249519 123.1875 267.625 C123.01379883 268.4284082 122.84009766 269.23181641 122.66113281 270.05957031 C116.17986132 298.53448059 99.45481575 324.83710224 74.74121094 340.84521484 C52.38457879 354.6771709 27.81668586 360.91772564 1.64282227 360.70361328 C-0.69118394 360.68747453 -3.02346594 360.70361551 -5.35742188 360.72265625 C-36.69027829 360.76678154 -65.94634108 349.61106369 -88.375 327.5625 C-108.20832357 307.30690099 -119.42876961 281.52616059 -125.875 254.25 C-126.07407959 253.41267334 -126.27315918 252.57534668 -126.47827148 251.71264648 C-129.84627612 236.54722585 -130.44850736 221.38573579 -130.4609375 205.9140625 C-130.46739353 203.9852184 -130.47412375 202.05637521 -130.48110962 200.12753296 C-130.49299289 196.10534403 -130.49680004 192.08324036 -130.49560547 188.06103516 C-130.49544346 183.99639997 -130.50926092 179.93221805 -130.53662109 175.86767578 C-130.84347512 129.5798226 -127.34191355 79.82915637 -95.125 43.3125 C-94.42761719 42.49523437 -93.73023438 41.67796875 -93.01171875 40.8359375 C-77.30161658 22.8097812 -59.24683739 11.4221585 -36.5 4.5 C-35.86860107 4.3050293 -35.23720215 4.11005859 -34.58666992 3.90917969 C-23.30046006 0.68495447 -11.68031836 -0.05545834 0 0 Z " fill="#A03B68" transform="translate(1108.125,334.6875)"/>
<path d="M0 0 C66.99 0 133.98 0 203 0 C203 18.15 203 36.3 203 55 C180.56 55 158.12 55 135 55 C135 134.2 135 213.4 135 295 C157.44 295 179.88 295 203 295 C203 313.15 203 331.3 203 350 C136.01 350 69.02 350 0 350 C0 331.85 0 313.7 0 295 C21.78 295 43.56 295 66 295 C66 215.8 66 136.6 66 55 C44.22 55 22.44 55 0 55 C0 36.85 0 18.7 0 0 Z " fill="#854180" transform="translate(710,340)"/>
<path d="M0 0 C1.11375 0.66 2.2275 1.32 3.375 2 C3.705 1.01 4.035 0.02 4.375 -1 C8.995 -1 13.615 -1 18.375 -1 C18.44299187 6.68482443 18.49794015 14.3695355 18.53043652 22.05458832 C18.54603947 25.62374621 18.56717818 29.19268622 18.60131836 32.76171875 C18.63410534 36.21118793 18.65189332 39.66044857 18.65963173 43.11006165 C18.66780731 45.05533736 18.69119545 47.00053012 18.71488953 48.94567871 C18.71632308 56.54162457 18.53811609 63.03733794 13.61328125 69.20703125 C5.42837854 76.03055055 -1.02174236 77.69284224 -11.77734375 77.48828125 C-17.72733718 76.73320594 -22.80947872 74.5767756 -27.625 71 C-28.285 69.68 -28.945 68.36 -29.625 67 C-27.645 64.36 -25.665 61.72 -23.625 59 C-19.625 61 -19.625 61 -16.9375 62.625 C-12.69037815 64.38795624 -9.16335348 64.6196276 -4.625 64 C-1.59000593 62.70851316 -0.15041595 61.77561403 1.6875 59.0625 C2.58581851 56.72988878 2.58581851 56.72988878 2.375 53 C1.653125 53.495 0.93125 53.99 0.1875 54.5 C-5.4066411 57.28375116 -12.91973438 57.11157968 -18.8125 55.34375 C-24.86634181 52.20872478 -29.21963294 46.9027729 -31.5 40.5625 C-34.48461653 28.83849734 -33.58023061 16.68987132 -27.5625 6.13671875 C-21.33609805 -2.57592009 -9.23700286 -4.56148289 0 0 Z M-15.625 16 C-18.49348964 21.73697928 -18.58339295 28.92682998 -17.125 35.125 C-15.55495667 39.26420515 -13.4493267 41.8270871 -9.625 44 C-4.63718907 44.62347637 -1.62959372 44.06233637 2.375 41 C4.43124944 36.88750111 3.6922507 31.64519502 3.75 27.125 C3.78738281 26.02285156 3.82476563 24.92070313 3.86328125 23.78515625 C4.08327557 17.52772224 4.08327557 17.52772224 1.1328125 12.27734375 C-5.5747772 9.17057062 -11.1579525 9.77320652 -15.625 16 Z " fill="#D42D3A" transform="translate(1713.625,763)"/>
<path d="M0 0 C7.73336938 5.3834505 11.39912064 11.47518492 13.58544922 20.56665039 C14.44223257 25.59583744 14.36913753 30.66137238 14.375 35.75 C14.39949219 36.8534375 14.42398438 37.956875 14.44921875 39.09375 C14.48453188 49.12267794 12.84535861 59.04865552 5.6875 66.5625 C4.96949219 67.34753906 4.25148438 68.13257813 3.51171875 68.94140625 C-1.81507816 73.3072258 -7.17607682 74.54113575 -13.9375 74.4375 C-14.64189209 74.42847656 -15.34628418 74.41945313 -16.07202148 74.41015625 C-24.02991899 74.14467791 -28.31058378 72.00827382 -33.75 66.375 C-39.34306992 59.49220391 -41.69738668 51.76262918 -42 43 C-42.05994141 41.27910156 -42.05994141 41.27910156 -42.12109375 39.5234375 C-42.33610019 27.10365373 -42.03975964 13.94703177 -33.36328125 4.15234375 C-24.40566353 -4.04035381 -10.78773983 -6.45890156 0 0 Z M-23 14 C-26.46443794 21.11342221 -26.45157399 27.68094526 -26.375 35.5 C-26.38660156 36.68464844 -26.39820313 37.86929688 -26.41015625 39.08984375 C-26.38430361 46.81978382 -25.87599456 52.99415043 -21.25 59.4375 C-18.10332382 61.62269179 -15.81542305 61.93421684 -12 62 C-7.7470683 60.74913774 -5.76830897 59.11484157 -3.6875 55.3125 C0.97457741 44.59552537 0.67395232 28.9808072 -3 18 C-4.75364595 14.4255472 -6.6401818 12.2398788 -10 10 C-15.75359516 9.44320047 -18.98994276 9.41707744 -23 14 Z " fill="#8E3F78" transform="translate(964,745)"/>
<path d="M0 0 C4.95 0 9.9 0 15 0 C15.33 9.24 15.66 18.48 16 28 C17.65 26.68 19.3 25.36 21 24 C26.05732259 21.19037634 31.62885561 21.2823503 37.18359375 22.46484375 C42.40858737 24.13407612 44.93021904 26.48561623 48 31 C51.12712797 37.25425593 51.14299935 43.84159487 51.09765625 50.6796875 C51.0962413 51.49245148 51.09482635 52.30521545 51.09336853 53.14260864 C51.08780335 55.72011101 51.0752574 58.2975242 51.0625 60.875 C51.0574805 62.63020707 51.05291838 64.38541552 51.04882812 66.140625 C51.0386993 70.42714473 51.01911731 74.71347338 51 79 C45.72 79 40.44 79 35 79 C34.9906543 77.83952148 34.98130859 76.67904297 34.97167969 75.48339844 C34.93178124 71.17425269 34.86602316 66.86582101 34.79248047 62.55712891 C34.76426994 60.69296447 34.74305579 58.8286804 34.72900391 56.96435547 C34.70757516 54.28290559 34.66092702 51.60289414 34.609375 48.921875 C34.60814636 48.08944275 34.60691772 47.2570105 34.60565186 46.39935303 C34.48419486 41.58975228 34.48419486 41.58975228 32.11425781 37.47338867 C29.54676353 35.68414757 28.10827233 35.4914267 25 35.5625 C24.154375 35.56378906 23.30875 35.56507813 22.4375 35.56640625 C19.30502858 36.12362472 18.18090241 36.64290868 16 39 C15.36174033 42.0015475 15.3949992 44.98309269 15.390625 48.04296875 C15.37408875 48.9265657 15.35755249 49.81016266 15.34051514 50.72053528 C15.29192715 53.54292678 15.27064059 56.36477912 15.25 59.1875 C15.2218493 61.10093874 15.19192314 63.01435225 15.16015625 64.92773438 C15.08616545 69.61844521 15.03665698 74.30885483 15 79 C10.05 79 5.1 79 0 79 C0 52.93 0 26.86 0 0 Z " fill="#B63554" transform="translate(1367,739)"/>
<path d="M0 0 C5.28 0 10.56 0 16 0 C18.13648252 6.2339214 20.013138 12.47845948 21.69921875 18.84765625 C22.01904724 20.04304016 22.01904724 20.04304016 22.34533691 21.26257324 C23.12907967 24.19507624 23.90802068 27.12886087 24.6875 30.0625 C26.440625 36.641875 28.19375 43.22125 30 50 C34.29 33.5 38.58 17 43 0 C48.61 0 54.22 0 60 0 C58.33375942 8.26343713 55.89194258 16.26381375 53.4296875 24.31640625 C52.98384848 25.78319053 52.53830692 27.25006525 52.0930481 28.71702576 C50.92879986 32.5499467 49.76055385 36.3816374 48.59143066 40.21307373 C47.39574536 44.13414329 46.20390075 48.05637978 45.01171875 51.97851562 C42.6782062 59.65348267 40.34010829 67.32704143 38 75 C32.72 75 27.44 75 22 75 C19.10256291 67.65249319 16.8328341 60.13510387 14.55078125 52.578125 C14.12915709 51.18664379 13.70745884 49.79518502 13.28569031 48.40374756 C12.40721417 45.50297569 11.53094465 42.60154768 10.65600586 39.69970703 C9.53515426 35.98359158 8.40673809 32.26981968 7.27644062 28.55656815 C6.40536147 25.69068164 5.53929839 22.82329751 4.67464256 19.95546722 C4.26057955 18.58501073 3.84472306 17.21509476 3.42702675 15.84574127 C2.84494937 13.93553546 2.27056647 12.02299009 1.6965332 10.11035156 C1.20380669 8.48108734 1.20380669 8.48108734 0.7011261 6.81890869 C0 4 0 4 0 0 Z " fill="#5F4BA1" transform="translate(416,743)"/>
<path d="M0 0 C5.08183725 4.04237054 6.70254323 8.04512969 8.75 14.1875 C8.75 19.1375 8.75 24.0875 8.75 29.1875 C-3.46 29.1875 -15.67 29.1875 -28.25 29.1875 C-25.19620268 36.79692088 -25.19620268 36.79692088 -21.5625 39.1875 C-15.53198605 41.00803251 -10.59431112 41.1475818 -4.9375 38.1875 C-4.32261719 37.81625 -3.70773437 37.445 -3.07421875 37.0625 C-1.25 36.1875 -1.25 36.1875 2.75 36.1875 C4.76623639 37.97027744 6.12344618 40.01876157 7.75 42.1875 C5.79153927 47.17267277 2.26304786 49.422539 -2.40234375 51.78125 C-6.48749162 53.47978616 -10.23983982 53.68663781 -14.625 53.625 C-15.74708862 53.61472778 -15.74708862 53.61472778 -16.8918457 53.60424805 C-22.72368078 53.43490602 -27.32243383 52.45457341 -32.25 49.1875 C-33.85875 48.135625 -33.85875 48.135625 -35.5 47.0625 C-41.82260415 40.45250475 -44.56914575 32.44105405 -44.3984375 23.359375 C-43.77659592 14.26085077 -40.66918529 7.11487267 -33.9375 0.875 C-23.36793792 -7.46699846 -11.23801282 -6.2673533 0 0 Z M-24.25 10.1875 C-26.36587159 12.87422257 -28.25 15.66702248 -28.25 19.1875 C-20.66 19.1875 -13.07 19.1875 -5.25 19.1875 C-6.84916937 12.3868921 -6.84916937 12.3868921 -11.25 8.1875 C-16.39056774 6.47397742 -19.64796077 7.46036564 -24.25 10.1875 Z " fill="#AB385E" transform="translate(1283.25,765.8125)"/>
<path d="M0 0 C5.28 0 10.56 0 16 0 C19.35843276 6.42482789 22.07444046 12.99134517 24.6875 19.75 C25.29174805 21.29107422 25.29174805 21.29107422 25.90820312 22.86328125 C29.12393025 31.12613789 29.12393025 31.12613789 30 35 C34.94504075 23.44500528 39.44415621 11.712191 44 0 C49.61 0 55.22 0 61 0 C59.07865522 6.00983931 56.91375316 11.74739106 54.3046875 17.48828125 C53.95561844 18.26576218 53.60654938 19.0432431 53.24690247 19.84428406 C52.12716876 22.33562124 51.00134052 24.82414372 49.875 27.3125 C49.10229032 29.02654392 48.32991186 30.7407372 47.55786133 32.45507812 C46.41577433 34.9903798 45.27316587 37.52543737 44.1285553 40.05960083 C42.07402788 44.60867739 40.03458983 49.16372103 38.01953125 53.73046875 C37.61299316 54.64852295 37.20645508 55.56657715 36.78759766 56.51245117 C36.08405772 58.10330079 35.38415428 59.69576679 34.68896484 61.2902832 C31.45156834 68.56888477 27.88473017 74.28626102 20.75 78.25 C15.82784593 79.59240566 10.83999662 79.61333221 6 78 C6.99 72.06 6.99 72.06 8 66 C9.03125 66 10.0625 66 11.125 66 C14.75266624 65.49861523 16.15861686 64.11193163 18.375 61.25 C20.56077467 58.18757773 21.62302674 55.75502793 22 52 C21.09661369 49.0037203 21.09661369 49.0037203 19.5703125 45.90625 C19.02592529 44.7200708 18.48153809 43.5338916 17.9206543 42.31176758 C17.32211252 41.04117384 16.72356089 39.77058474 16.125 38.5 C15.52547239 37.20086363 14.92758175 35.90097062 14.33129883 34.6003418 C13.42882336 32.63202552 12.5255695 30.66412821 11.6174469 28.69841003 C8.88210819 22.77576511 6.25800099 16.80855872 3.6875 10.8125 C3.30932129 9.94109375 2.93114258 9.0696875 2.54150391 8.171875 C2.2016748 7.37910156 1.8618457 6.58632813 1.51171875 5.76953125 C1.21740967 5.08479736 0.92310059 4.40006348 0.61987305 3.69458008 C0 2 0 2 0 0 Z " fill="#DA2C35" transform="translate(1741,762)"/>
<path d="M0 0 C4.98681065 3.85344459 6.5534909 8.0604438 8 14 C8.35626205 17.22237115 8.35349834 20.39013041 8.29296875 23.62890625 C8.28872391 24.50401352 8.28447906 25.37912079 8.28010559 26.28074646 C8.26347981 29.04166072 8.22585966 31.80181105 8.1875 34.5625 C8.17243228 36.44855707 8.15874756 38.33462573 8.14648438 40.22070312 C8.11362937 44.81409083 8.06196135 49.40691647 8 54 C3.05 54 -1.9 54 -7 54 C-7.029729 52.35801636 -7.029729 52.35801636 -7.06005859 50.68286133 C-7.13629437 46.61052971 -7.2249838 42.53854704 -7.31738281 38.46655273 C-7.35559841 36.70620629 -7.39046413 34.94578374 -7.421875 33.18530273 C-7.46768714 30.65060275 -7.52565417 28.11642336 -7.5859375 25.58203125 C-7.59748871 24.79850784 -7.60903992 24.01498444 -7.62094116 23.2077179 C-7.73164851 19.08250835 -8.01338125 15.66213884 -10 12 C-12.43954658 10.78022671 -14.15305849 10.79846187 -16.875 10.75 C-17.73867188 10.72421875 -18.60234375 10.6984375 -19.4921875 10.671875 C-22.72072409 11.09430035 -23.77890278 11.58607718 -26 14 C-26.63770122 17.00173169 -26.60500068 19.98300599 -26.609375 23.04296875 C-26.62591125 23.9265657 -26.64244751 24.81016266 -26.65948486 25.72053528 C-26.70807285 28.54292678 -26.72935941 31.36477912 -26.75 34.1875 C-26.7781507 36.10093874 -26.80807686 38.01435225 -26.83984375 39.92773438 C-26.91383455 44.61844521 -26.96334302 49.30885483 -27 54 C-32.28 54 -37.56 54 -43 54 C-43 35.52 -43 17.04 -43 -2 C-38.38 -2 -33.76 -2 -29 -2 C-28.34 -0.35 -27.68 1.3 -27 3 C-26.54109375 2.65066406 -26.0821875 2.30132813 -25.609375 1.94140625 C-24.99578125 1.48636719 -24.3821875 1.03132812 -23.75 0.5625 C-23.14671875 0.11003906 -22.5434375 -0.34242188 -21.921875 -0.80859375 C-15.22720022 -4.95874783 -6.5449579 -3.65007268 0 0 Z " fill="#7C4487" transform="translate(779,764)"/>
<path d="M0 0 C6.90026555 4.50434001 9.81690402 10.16902476 11.75 18.0625 C12.62743818 28.37239862 11.79577329 39.07123471 4.859375 47.3125 C-0.9449396 52.58028132 -8.20135096 55.21366162 -16 55 C-24.79339076 54.33214754 -31.4607974 50.91175024 -37.375 44.375 C-42.40482292 33.92844471 -43.36064238 22.81977036 -39.875 11.6875 C-37.05623352 5.3081864 -32.6800571 0.40737334 -26.3125 -2.5 C-17.17227706 -5.61156526 -8.23919514 -5.08611854 0 0 Z M-21 10 C-25.49116365 14.99018183 -26.20296882 18.18915089 -26.25 24.75 C-26.270625 25.45382812 -26.29125 26.15765625 -26.3125 26.8828125 C-26.35411781 32.48040741 -25.16155265 36.59827483 -21.3125 40.875 C-17.89475432 42.53768709 -14.67859211 42.6581974 -11 42 C-6.91826613 39.60419969 -5.3973195 37.4443378 -4 33 C-3.64656839 29.39242693 -3.64656839 29.39242693 -3.6875 25.5625 C-3.67074219 24.28503906 -3.65398438 23.00757813 -3.63671875 21.69140625 C-4.09056318 17.07976127 -5.61773487 13.90884232 -8.3125 10.1875 C-12.46875794 7.2627259 -16.74512952 7.53665394 -21 10 Z " fill="#76458D" transform="translate(713,765)"/>
<path d="M0 0 C4.95 0 9.9 0 15 0 C15.01981934 1.12494873 15.03963867 2.24989746 15.06005859 3.40893555 C15.13628155 7.59307781 15.22497306 11.77687987 15.31738281 15.96069336 C15.35560367 17.76954418 15.3904685 19.57846921 15.421875 21.38745117 C15.46767557 23.99164302 15.52564474 26.595327 15.5859375 29.19921875 C15.59748871 30.00461594 15.60903992 30.81001312 15.62094116 31.63981628 C15.72994105 35.81123049 15.95227224 39.25068415 18 43 C21.14424302 44.57212151 24.57791292 44.5179375 28 44 C30.73828004 43.17652372 30.73828004 43.17652372 33 41 C33.78796437 37.93182863 33.72110509 34.89235218 33.70703125 31.73828125 C33.72215256 30.83248825 33.73727386 29.92669525 33.75285339 28.99345398 C33.79585136 26.09955182 33.80457992 23.20669024 33.8125 20.3125 C33.83563494 18.35088356 33.86099818 16.38929204 33.88867188 14.42773438 C33.95164366 9.61839711 33.98388441 4.80971334 34 0 C39.28 0 44.56 0 50 0 C50 18.48 50 36.96 50 56 C45.38 56 40.76 56 36 56 C35.34 54.68 34.68 53.36 34 52 C33.50371094 52.34933594 33.00742187 52.69867187 32.49609375 53.05859375 C26.47432621 57.09214962 21.7183949 58.62906718 14.4375 57.375 C10.10092482 56.23185518 6.74184926 54.63438517 4 51 C-1.5678345 41.24213819 -0.45234451 30.13315908 -0.25 19.3125 C-0.22989983 17.43556598 -0.2116553 15.55861112 -0.1953125 13.68164062 C-0.15160563 9.12057194 -0.08277384 4.56052012 0 0 Z " fill="#943E72" transform="translate(989,762)"/>
<path d="M0 0 C6.88436333 4.49869287 10.57318156 10.22325239 12.3125 18.1875 C13.95426352 29.21292105 12.49334792 38.73944474 6 48 C0.22744346 53.88663868 -6.93520816 55.66220767 -15 56 C-22.47079143 55.65048929 -28.42779661 52.96652911 -34 48 C-39.83706022 41.23755219 -41.44223325 33.002007 -41.18359375 24.25390625 C-40.44822541 15.22608647 -37.62479755 8.62479755 -31.1875 2.1875 C-21.73377217 -4.30035243 -10.38932822 -5.22412345 0 0 Z M-22.1875 12.5625 C-26.52515626 18.3958998 -26.367471 25.50149654 -25.546875 32.4765625 C-24.47218744 37.43547793 -22.24575568 40.16949621 -18 43 C-13.40617081 43.44456411 -11.11743887 43.65588803 -7.125 41.3125 C-2.99197319 36.81479436 -2.70555746 32.53951792 -2.6875 26.5625 C-2.67074219 25.28503906 -2.65398437 24.00757813 -2.63671875 22.69140625 C-3.09056318 18.07976127 -4.61773487 14.90884232 -7.3125 11.1875 C-12.5555214 7.49796643 -17.40727823 9.14805588 -22.1875 12.5625 Z " fill="#CE2F3F" transform="translate(1658,764)"/>
<path d="M0 0 C5.97062222 4.93225314 9.20143146 10.5266376 11 18 C11.92053237 29.16593814 11.50268816 38.10430735 4.25 46.875 C-1.1797312 52.54166492 -6.67729232 54.45404848 -14.38671875 54.9921875 C-22.78792283 55.01730321 -28.94108857 52.88348638 -35 47 C-41.66140532 39.60973863 -42.47170275 31.50665766 -42.30859375 21.796875 C-41.63144268 13.4653454 -39.07757698 6.9853901 -32.80078125 1.3671875 C-22.97897794 -6.08971306 -10.54515868 -5.86478934 0 0 Z M-23 11 C-27.597875 16.9772375 -27.56655257 23.72752513 -27 31 C-26.10172907 34.86185769 -24.45659517 37.50535523 -21.75 40.4375 C-18.22980218 42.4376124 -15.99451731 42.43576552 -12 42 C-8.97937985 41.07703273 -8.15887941 40.22360806 -6.3125 37.625 C-3.22943279 31.45886557 -3.04528231 24.29622959 -4.53125 17.609375 C-5.88065265 13.64917158 -7.20405585 10.89797208 -11 9 C-15.70378487 7.22018951 -18.72042563 8.62245868 -23 11 Z " fill="#4751B6" transform="translate(209,765)"/>
<path d="M0 0 C5.28 0 10.56 0 16 0 C16.02505615 1.22630127 16.0501123 2.45260254 16.07592773 3.71606445 C16.17003054 8.2615827 16.27024433 12.80694917 16.37231445 17.35229492 C16.41565241 19.32035779 16.45732832 21.28845798 16.49731445 23.2565918 C16.55504445 26.0839361 16.61873116 28.91109271 16.68359375 31.73828125 C16.70030624 32.61962234 16.71701874 33.50096344 16.73423767 34.40901184 C16.75418289 35.22963608 16.77412811 36.05026031 16.79467773 36.89575195 C16.81799416 37.97830009 16.81799416 37.97830009 16.84178162 39.0827179 C16.94195257 41.22108144 16.94195257 41.22108144 18 44 C26.01657451 44.54486772 26.01657451 44.54486772 33 41 C35.13086442 38.86913558 34.25960872 34.10833065 34.31640625 31.15234375 C34.33718735 30.2659169 34.35796844 29.37949005 34.37937927 28.46620178 C34.444974 25.623383 34.50380552 22.78046883 34.5625 19.9375 C34.6056758 18.01496394 34.64928978 16.09243766 34.69335938 14.16992188 C34.80066543 9.44671332 34.90190451 4.72340847 35 0 C39.95 0 44.9 0 50 0 C50 18.48 50 36.96 50 56 C45.38 56 40.76 56 36 56 C36 54.35 36 52.7 36 51 C35.05125 51.78375 34.1025 52.5675 33.125 53.375 C28.20685632 56.86241097 22.82652316 58.33185776 16.79296875 57.80859375 C11.5904685 56.70443022 6.84191986 54.70109015 3.77734375 50.20703125 C0.00522635 43.21712194 -0.1495979 36.00392016 -0.09765625 28.22265625 C-0.0962413 27.41130722 -0.09482635 26.59995819 -0.09336853 25.76402283 C-0.08781357 23.19680953 -0.07526967 20.62968652 -0.0625 18.0625 C-0.05747917 16.31185023 -0.05291729 14.56119907 -0.04882812 12.81054688 C-0.03871386 8.54030261 -0.01913005 4.27025124 0 0 Z " fill="#4D50B1" transform="translate(232,762)"/>
<path d="M0 0 C5.40123442 4.20860517 7.89848608 9.35952073 10.02734375 15.74609375 C10.72181078 27.05110625 11.22312602 37.45646258 3.65234375 46.62109375 C2.78609375 47.32234375 1.91984375 48.02359375 1.02734375 48.74609375 C0.18171875 49.46796875 -0.66390625 50.18984375 -1.53515625 50.93359375 C-8.75211084 54.73889708 -16.76221662 55.58370648 -24.66015625 53.55859375 C-32.58520073 50.77411866 -37.15329319 46.19636445 -40.97265625 38.74609375 C-44.79395686 29.46841678 -43.70545503 18.84579208 -39.97265625 9.74609375 C-36.38673811 3.19251921 -31.34108224 -1.37788135 -24.23828125 -3.75 C-15.87013139 -5.61119195 -7.27487559 -4.62422785 0 0 Z M-23.97265625 10.74609375 C-27.66986851 16.41515255 -28.41722389 22.07757912 -27.97265625 28.74609375 C-27.00224632 33.26193838 -25.80519575 36.77083319 -22.78515625 40.30859375 C-19.06474924 42.21013511 -16.06573669 42.71550754 -11.97265625 41.74609375 C-8.67185577 39.16285859 -6.48127725 36.64059555 -4.97265625 32.74609375 C-4.61712763 29.21425383 -4.61712763 29.21425383 -4.66015625 25.37109375 C-4.64339844 24.08460938 -4.62664062 22.798125 -4.609375 21.47265625 C-5.06096711 16.84019522 -6.57880839 13.67093127 -9.28515625 9.93359375 C-14.33785451 6.37799127 -18.98258311 7.82737173 -23.97265625 10.74609375 Z " fill="#C23249" transform="translate(1533.97265625,765.25390625)"/>
<path d="M0 0 C5.20322074 3.06071808 8.43480098 7.02305761 10.1875 12.875 C10.4545422 16.17549417 10.4201566 19.46017002 10.3828125 22.76953125 C10.3799826 23.71688644 10.37715271 24.66424164 10.37423706 25.64030457 C10.36307187 28.65616666 10.33797389 31.67172816 10.3125 34.6875 C10.30246547 36.73632383 10.29334045 38.78515232 10.28515625 40.83398438 C10.26314449 45.84777148 10.22863971 50.86133483 10.1875 55.875 C5.2375 55.875 0.2875 55.875 -4.8125 55.875 C-4.82708252 54.71452148 -4.84166504 53.55404297 -4.85668945 52.35839844 C-4.91469941 48.04932982 -4.99193207 43.7407823 -5.07495117 39.43212891 C-5.10818784 37.56795718 -5.13622373 35.70368513 -5.15893555 33.83935547 C-5.19250488 31.15809409 -5.24482109 28.47775104 -5.30078125 25.796875 C-5.30717117 24.96444275 -5.3135611 24.1320105 -5.32014465 23.27435303 C-5.40888452 19.77523473 -5.49422554 17.46108939 -7.18457031 14.34838867 C-9.51484855 12.23932611 -11.15181565 12.37444333 -14.25 12.4375 C-15.19746094 12.43878906 -16.14492187 12.44007813 -17.12109375 12.44140625 C-20.41562358 12.97216505 -21.54507154 13.40359475 -23.8125 15.875 C-24.44922354 18.87702044 -24.41750053 21.85790181 -24.421875 24.91796875 C-24.43841125 25.8015657 -24.45494751 26.68516266 -24.47198486 27.59553528 C-24.52057285 30.41792678 -24.54185941 33.23977912 -24.5625 36.0625 C-24.5906507 37.97593874 -24.62057686 39.88935225 -24.65234375 41.80273438 C-24.72633455 46.49344521 -24.77584302 51.18385483 -24.8125 55.875 C-29.7625 55.875 -34.7125 55.875 -39.8125 55.875 C-39.8125 37.395 -39.8125 18.915 -39.8125 -0.125 C-35.1925 -0.125 -30.5725 -0.125 -25.8125 -0.125 C-25.8125 1.855 -25.8125 3.835 -25.8125 5.875 C-25.19761719 5.45347656 -24.58273437 5.03195312 -23.94921875 4.59765625 C-23.14097656 4.04980469 -22.33273437 3.50195312 -21.5 2.9375 C-20.69949219 2.39222656 -19.89898438 1.84695313 -19.07421875 1.28515625 C-13.21449346 -2.36831669 -6.41970398 -1.89433888 0 0 Z " fill="#BC334E" transform="translate(1469.8125,762.125)"/>
<path d="M0 0 C5.74378748 4.69483338 6.91542513 7.4079759 8 15 C2.72 15 -2.56 15 -8 15 C-8.66 13.35 -9.32 11.7 -10 10 C-13.70626751 7.81080572 -16.61447341 7.86921366 -20.8125 8.375 C-21.78832031 8.48585938 -22.76414062 8.59671875 -23.76953125 8.7109375 C-24.87361328 8.85402344 -24.87361328 8.85402344 -26 9 C-26 11.31 -26 13.62 -26 16 C-20.65658437 17.66686196 -15.34009946 19.15821577 -9.875 20.375 C-3.56307672 21.9265796 1.13056 24.40824774 5.9375 28.75 C8.17943083 33.49761824 8.56679466 38.19334204 7 43.1875 C3.12896001 48.63114998 -1.34595626 52.59241382 -8 54 C-17.99269331 55.65208252 -27.74818712 55.40373718 -36.27734375 49.4140625 C-41.66376455 44.99255608 -42.95000255 42.34998212 -44 35 C-39.05 35 -34.1 35 -29 35 C-28.34 36.65 -27.68 38.3 -27 40 C-23.83801393 42.34849972 -20.78722979 42.26908168 -16.9375 42.25 C-15.37322266 42.25773438 -15.37322266 42.25773438 -13.77734375 42.265625 C-10.78871015 42.20072577 -10.78871015 42.20072577 -8 40 C-8.33 38.35 -8.66 36.7 -9 35 C-13.12662386 33.57702625 -17.20281201 32.20405836 -21.43359375 31.12109375 C-36.86604939 27.15084951 -36.86604939 27.15084951 -41.18359375 20.0546875 C-42.98170035 15.52930917 -42.44474045 11.26009795 -40.875 6.8125 C-37.19081972 1.28622957 -32.91008083 -1.65077048 -26.61328125 -3.4921875 C-17.4462351 -5.27352681 -8.21024817 -4.66729076 0 0 Z " fill="#6A4897" transform="translate(590,765)"/>
<path d="M0 0 C5.61 0 11.22 0 17 0 C22.01594704 10.54372541 26.63892888 21.17022764 31 32 C32.67357195 28.24687551 34.34589444 24.49319702 36.01708984 20.73901367 C36.5851107 19.46347224 37.15346541 18.18807943 37.72216797 16.9128418 C38.54223185 15.07380187 39.36097321 13.23417239 40.1796875 11.39453125 C40.67194824 10.28956299 41.16420898 9.18459473 41.67138672 8.04614258 C42.83177238 5.38569937 43.92204197 2.69489507 45 0 C50.61 0 56.22 0 62 0 C59.75026244 6.74921267 59.75026244 6.74921267 58.26000977 9.78295898 C57.7642318 10.79947792 57.7642318 10.79947792 57.25843811 11.83653259 C56.9063176 12.54918777 56.55419708 13.26184296 56.19140625 13.99609375 C55.8240184 14.74786392 55.45663055 15.49963409 55.07810974 16.27418518 C53.90976577 18.66370283 52.7364633 21.05073877 51.5625 23.4375 C50.39282429 25.82103111 49.22426261 28.20509478 48.05760193 30.59010315 C47.33381963 32.06918129 46.60823128 33.54737755 45.88050842 35.02452087 C44.90725783 37.01036921 43.95019587 39.00303286 43 41 C42.4342627 42.18674316 41.86852539 43.37348633 41.28564453 44.59619141 C39.9494453 48.13384611 39.57834255 50.82528154 39.48828125 54.58984375 C39.45283203 55.78544922 39.41738281 56.98105469 39.38085938 58.21289062 C39.35830078 59.44201172 39.33574219 60.67113281 39.3125 61.9375 C39.27833984 63.19369141 39.24417969 64.44988281 39.20898438 65.74414062 C39.12687463 68.82912089 39.06175169 71.91454509 39 75 C33.72 75 28.44 75 23 75 C23.13664062 73.40800781 23.27328125 71.81601562 23.4140625 70.17578125 C24.35954102 48.99388443 16.99728132 34.17208859 7.12164307 15.92124939 C4.33026014 10.74187509 2.01653657 5.53580725 0 0 Z " fill="#4153BB" transform="translate(100,743)"/>
<path d="M0 0 C10.56 0 21.12 0 32 0 C32 22.11 32 44.22 32 67 C37.28 67 42.56 67 48 67 C48 70.96 48 74.92 48 79 C32.16 79 16.32 79 0 79 C0 75.04 0 71.08 0 67 C5.61 67 11.22 67 17 67 C17 48.85 17 30.7 17 12 C11.39 12 5.78 12 0 12 C0 8.04 0 4.08 0 0 Z " fill="#C83044" transform="translate(1559,739)"/>
<path d="M0 0 C20.13 0 40.26 0 61 0 C61 4.29 61 8.58 61 13 C53.41 13 45.82 13 38 13 C38 33.46 38 53.92 38 75 C33.05 75 28.1 75 23 75 C23 54.54 23 34.08 23 13 C15.41 13 7.82 13 0 13 C0 8.71 0 4.42 0 0 Z " fill="#A53963" transform="translate(1172,743)"/>
<path d="M0 0 C3.76601191 3.29721375 6.74186639 7.09327894 8 12 C8 13.98 8 15.96 8 18 C3.38 18 -1.24 18 -6 18 C-6.99 16.02 -7.98 14.04 -9 12 C-12.63358362 9.35739373 -14.21726156 8.88059922 -18.6875 9.5625 C-22.07113542 11.03087009 -23.26607757 11.8211422 -25 15 C-26.19104332 18.57312995 -26.20528823 21.54553322 -26.25 25.3125 C-26.27578125 26.60800781 -26.3015625 27.90351562 -26.328125 29.23828125 C-25.97773117 33.2552962 -25.14349626 35.6094697 -23 39 C-19.33091443 41.44605705 -16.26381231 41.83946402 -12 41 C-9.30894802 38.82425584 -7.54467072 37.08934144 -6 34 C-1.38 34 3.24 34 8 34 C7.59820089 39.82608707 6.95017978 43.44210025 3 48 C-3.40823278 53.57439044 -11.40114634 55.38531437 -19.78125 54.80859375 C-27.53549247 53.51232731 -32.80419465 49.9946718 -37.67578125 43.8828125 C-43.65241273 35.38506509 -43.16185412 24.07762804 -41.53125 14.14453125 C-39.57335599 7.37348114 -35.40105843 2.23287618 -29.375 -1.375 C-20.0349875 -5.87204306 -8.89690411 -5.41413026 0 0 Z " fill="#B13659" transform="translate(1345,765)"/>
<path d="M0 0 C10.23 0 20.46 0 31 0 C31 14.52 31 29.04 31 44 C35.95 44 40.9 44 46 44 C46 47.96 46 51.92 46 56 C30.82 56 15.64 56 0 56 C0 52.04 0 48.08 0 44 C5.28 44 10.56 44 16 44 C16 33.77 16 23.54 16 13 C10.72 13 5.44 13 0 13 C0 8.71 0 4.42 0 0 Z " fill="#704792" transform="translate(614,762)"/>
<path d="M0 0 C10.23 0 20.46 0 31 0 C31 14.52 31 29.04 31 44 C35.95 44 40.9 44 46 44 C46 47.96 46 51.92 46 56 C30.82 56 15.64 56 0 56 C0 52.04 0 48.08 0 44 C5.28 44 10.56 44 16 44 C16 33.77 16 23.54 16 13 C10.72 13 5.44 13 0 13 C0 8.71 0 4.42 0 0 Z " fill="#654A9C" transform="translate(488,762)"/>
<path d="M0 0 C-0.14120714 1.93784265 -0.28812873 3.87526955 -0.4375 5.8125 C-0.51871094 6.89144531 -0.59992188 7.97039063 -0.68359375 9.08203125 C-1 12 -1 12 -2 15 C-3.61068359 14.94779297 -3.61068359 14.94779297 -5.25390625 14.89453125 C-6.69008839 14.86637082 -8.12628762 14.83907309 -9.5625 14.8125 C-10.61920898 14.77479492 -10.61920898 14.77479492 -11.69726562 14.73632812 C-16.88144374 14.66465746 -20.41830292 15.52137699 -25 18 C-27.47113581 21.70670372 -27.34788589 24.65192181 -27.4140625 28.94921875 C-27.43342865 29.72183548 -27.4527948 30.49445221 -27.4727478 31.29048157 C-27.53248479 33.7560424 -27.57890486 36.22165007 -27.625 38.6875 C-27.66318525 40.3600463 -27.70223731 42.03257305 -27.7421875 43.70507812 C-27.83981224 47.80328317 -27.9194251 51.90128225 -28 56 C-33.28 56 -38.56 56 -44 56 C-44 37.52 -44 19.04 -44 0 C-39.05 0 -34.1 0 -29 0 C-28.67 2.31 -28.34 4.62 -28 7 C-27.56429688 6.59007812 -27.12859375 6.18015625 -26.6796875 5.7578125 C-18.61683384 -1.53715034 -10.45010037 -2.32845374 0 0 Z " fill="#524EAC" transform="translate(346,762)"/>
<path d="M0 0 C1.40378906 -0.00386719 1.40378906 -0.00386719 2.8359375 -0.0078125 C5.625 0.125 5.625 0.125 10.625 1.125 C9.965 6.075 9.305 11.025 8.625 16.125 C4.9125 16.00125 4.9125 16.00125 1.125 15.875 C-5.40697977 15.7847356 -9.87885526 16.27769868 -15.375 20.125 C-17.81275269 23.78162904 -17.72186544 26.61915429 -17.7890625 30.85546875 C-17.80842865 31.60588943 -17.8277948 32.35631012 -17.8477478 33.12947083 C-17.90747459 35.52369867 -17.95390065 37.91797477 -18 40.3125 C-18.0381862 41.9368698 -18.07723831 43.56121948 -18.1171875 45.18554688 C-18.21479925 49.16525928 -18.29441976 53.14476038 -18.375 57.125 C-23.325 57.125 -28.275 57.125 -33.375 57.125 C-33.375 38.645 -33.375 20.165 -33.375 1.125 C-28.755 1.125 -24.135 1.125 -19.375 1.125 C-18.715 3.105 -18.055 5.085 -17.375 7.125 C-16.76011719 6.70347656 -16.14523437 6.28195312 -15.51171875 5.84765625 C-14.70347656 5.29980469 -13.89523437 4.75195312 -13.0625 4.1875 C-12.26199219 3.64222656 -11.46148438 3.09695313 -10.63671875 2.53515625 C-7.0128313 0.27570311 -4.18157664 -0.01145637 0 0 Z " fill="#993C6E" transform="translate(1092.375,760.875)"/>
<path d="M0 0 C4.95 0 9.9 0 15 0 C15.27153864 12.89808532 14.46438277 21.26994977 7 32 C6.34 32.66 5.68 33.32 5 34 C1.62008426 33.6442194 -1.04288438 32.64284201 -4 31 C-3.53300428 28.35369091 -2.98974282 25.97403652 -2 23.46875 C-0.66786767 18.84791598 -0.53887454 14.4115021 -0.375 9.625 C-0.33632813 8.69816406 -0.29765625 7.77132812 -0.2578125 6.81640625 C-0.16412882 4.54457704 -0.08100191 2.27231672 0 0 Z " fill="#824282" transform="translate(815,805)"/>
<path d="M0 0 C2.4375 1.625 2.4375 1.625 4 4 C4.55326548 7.87285839 4.56331202 10.04481874 2.5625 13.4375 C-1.23964277 15.75587974 -4.66240478 15.77201236 -9 15 C-11.5625 13.4375 -11.5625 13.4375 -13 11 C-13.46918683 7.24650538 -13.53136381 4.96151547 -11.6875 1.625 C-8.07839727 -1.85043226 -4.56830713 -1.04189461 0 0 Z " fill="#704791" transform="translate(642,741)"/>
<path d="M0 0 C2.4375 1.625 2.4375 1.625 4 4 C4.55326548 7.87285839 4.56331202 10.04481874 2.5625 13.4375 C-1.23964277 15.75587974 -4.66240478 15.77201236 -9 15 C-11.5625 13.4375 -11.5625 13.4375 -13 11 C-13.46918683 7.24650538 -13.53136381 4.96151547 -11.6875 1.625 C-8.07839727 -1.85043226 -4.56830713 -1.04189461 0 0 Z " fill="#64499C" transform="translate(516,741)"/>
</svg>
