<?xml version="1.0" encoding="UTF-8"?>
<svg version="1.1" xmlns="http://www.w3.org/2000/svg" width="2000" height="1999">
<path d="M0 0 C1.08838669 0.00040031 1.08838669 0.00040031 2.19876099 0.00080872 C25.49832534 0.0115423 48.70155932 0.32819689 71.9375 2.1875 C72.72384827 2.2483075 73.51019653 2.30911499 74.32037354 2.37176514 C142.66349069 7.65841351 210.21303754 19.905298 275.87670898 39.5715332 C277.88604774 40.17212101 279.89689049 40.76738848 281.90820312 41.36132812 C316.01900794 51.46251896 349.35024111 63.93767938 381.9375 78.1875 C382.8773877 78.59661621 383.81727539 79.00573242 384.78564453 79.42724609 C399.00873595 85.64306781 412.98888316 92.382329 426.9375 99.1875 C428.55978516 99.97713135 428.55978516 99.97713135 430.21484375 100.78271484 C444.74981873 107.87953304 458.96991321 115.3739749 472.96875 123.4765625 C476.08437565 125.27214675 479.21278785 127.04380744 482.34375 128.8125 C495.94704959 136.52821149 509.17425727 144.66147316 522.17919922 153.34667969 C524.92717248 155.18060767 527.68320332 157.00181433 530.44140625 158.8203125 C555.94911619 175.67423767 580.70097405 193.57915501 604.3046875 213.01953125 C606.05479526 214.46064373 607.80999612 215.89559403 609.5703125 217.32421875 C620.05208247 225.83492702 630.31140504 234.58982731 640.2421875 243.73828125 C642.35511778 245.65829181 644.48784255 247.54127262 646.64331055 249.41259766 C659.00924932 260.2243239 670.692696 271.77885065 682.28637695 283.40600586 C684.52635186 285.6514158 686.77172696 287.89132839 689.01757812 290.13085938 C690.47167542 291.58561646 691.92546303 293.04068318 693.37890625 294.49609375 C694.03629288 295.15145615 694.6936795 295.80681854 695.37098694 296.48204041 C699.18970718 300.31991192 702.82857018 304.26477232 706.3584137 308.37030029 C708.9260407 311.32510461 711.62671996 314.15304027 714.3125 317 C719.03946376 322.04660944 723.51259143 327.22084148 727.8359375 332.62109375 C729.91751427 335.16309363 732.0878838 337.58279335 734.3125 340 C738.29433587 344.37450826 741.95492083 348.93279075 745.57641602 353.60400391 C748.53795484 357.42064568 751.55709829 361.17961717 754.62988281 364.90722656 C761.81612092 373.63553867 768.5659118 382.64173462 775.20117188 391.79394531 C776.91468388 394.15604763 778.63630033 396.51205501 780.359375 398.8671875 C786.65326576 407.49377903 792.76733705 416.20986123 798.60693359 425.15039062 C800.06279828 427.37933282 801.52573556 429.60356158 802.98828125 431.828125 C845.94617265 497.35369667 880.7975774 567.3466572 906.9375 641.1875 C907.31811584 642.26233643 907.31811584 642.26233643 907.7064209 643.35888672 C935.82157922 723.02672409 952.43478413 806.47470608 960.9375 946.1875 C960.96086426 947.24984863 960.98422852 948.31219727 961.00830078 949.40673828 C962.19893882 1011.59006084 956.04455732 1074.05537898 944.9375 1135.1875 C944.81221924 1135.88284851 944.68693848 1136.57819702 944.55786133 1137.2946167 C937.4129191 1176.86883353 927.44869774 1215.9745977 914.9375 1254.1875 C914.54368134 1255.39508972 914.54368134 1255.39508972 914.14190674 1256.6270752 C903.1716588 1290.2219815 890.59417084 1323.021218 875.9375 1355.1875 C875.4228418 1356.32364746 874.90818359 1357.45979492 874.37792969 1358.63037109 C861.78809759 1386.33927619 848.13598297 1413.43656024 832.49707031 1439.56054688 C830.54694963 1442.84534628 828.65636324 1446.16204001 826.7668457 1449.48193359 C799.7491284 1496.84853219 766.70543141 1541.17245937 731.31445312 1582.57226562 C729.89628654 1584.23584543 728.48674683 1585.90645876 727.078125 1587.578125 C720.25530289 1595.64558976 713.15247199 1603.40510253 705.8972168 1611.08422852 C704.47155984 1612.6143188 703.0608981 1614.1584228 701.65942383 1615.71069336 C694.03606299 1624.14448242 686.07003119 1632.20800165 678.02075195 1640.23461914 C675.73988023 1642.51009584 673.46445025 1644.79091717 671.18945312 1647.07226562 C669.71646659 1648.54459181 668.24317014 1650.016608 666.76953125 1651.48828125 C666.10162064 1652.15821609 665.43371002 1652.82815094 664.74555969 1653.51838684 C660.8747512 1657.37026659 656.90085233 1661.04594092 652.76005554 1664.60649109 C649.74596949 1667.22111478 646.84784814 1669.95866276 643.9375 1672.6875 C639.01248742 1677.27897707 634.06401433 1681.82046927 628.9375 1686.1875 C627.95265625 1687.02796875 626.9678125 1687.8684375 625.953125 1688.734375 C619.01664003 1694.63695254 612.01837524 1700.45851416 604.9375 1706.1875 C604.38368652 1706.63706055 603.82987305 1707.08662109 603.25927734 1707.54980469 C587.90514981 1720.00000856 572.03058847 1731.71329383 555.9375 1743.1875 C555.13795898 1743.75758789 554.33841797 1744.32767578 553.51464844 1744.91503906 C477.67543777 1798.83644688 393.57401497 1840.86000552 71.9375 1917.1875 C71.18088074 1917.24915344 70.42426147 1917.31080688 69.64471436 1917.37432861 C23.5394819 1921.08265114 -23.96557776 1920.87610259 -70.0625 1917.1875 C-71.2420224 1917.09628876 -71.2420224 1917.09628876 -72.44537354 1917.00323486 C-116.05627178 1913.62973518 -159.28660748 1907.3017795 -202.0625 1898.1875 C-202.82375183 1898.02614563 -203.58500366 1897.86479126 -204.36932373 1897.69854736 C-227.52181582 1892.78029681 -250.35941152 1886.8756005 -273.0625 1880.1875 C-273.77968201 1879.97629517 -274.49686401 1879.76509033 -275.23577881 1879.54748535 C-324.00165112 1865.12998969 -371.33392704 1846.40435406 -417.0625 1824.1875 C-417.74761658 1823.85472046 -418.43273315 1823.52194092 -419.13861084 1823.17907715 C-436.8233204 1814.5735824 -454.31118545 1805.72580901 -471.29980469 1795.79980469 C-474.23698589 1794.08567031 -477.18420582 1792.38970994 -480.1328125 1790.6953125 C-513.03281862 1771.73012969 -544.88132864 1750.72526981 -575.08398438 1727.69384766 C-577.12908735 1726.13680356 -579.18127723 1724.5894518 -581.234375 1723.04296875 C-595.37270123 1712.35768489 -608.98339671 1701.04806944 -622.46337891 1689.54833984 C-624.12099996 1688.13771698 -625.78479828 1686.73462211 -627.44921875 1685.33203125 C-635.51747775 1678.5073121 -643.27875875 1671.40374158 -650.95922852 1664.1472168 C-652.4893188 1662.72155984 -654.0334228 1661.3108981 -655.58569336 1659.90942383 C-664.01948242 1652.28606299 -672.08300165 1644.32003119 -680.10961914 1636.27075195 C-682.38509584 1633.98988023 -684.66591717 1631.71445025 -686.94726562 1629.43945312 C-688.41959181 1627.96646659 -689.891608 1626.49317014 -691.36328125 1625.01953125 C-692.03321609 1624.35162064 -692.70315094 1623.68371002 -693.39338684 1622.99555969 C-697.24823843 1619.12176475 -700.9259454 1615.1445219 -704.48835754 1610.99975586 C-707.05385404 1608.04618832 -709.75332309 1605.2202604 -712.4375 1602.375 C-717.16446376 1597.32839056 -721.63759143 1592.15415852 -725.9609375 1586.75390625 C-728.04251427 1584.21190637 -730.2128838 1581.79220665 -732.4375 1579.375 C-736.41933587 1575.00049174 -740.07992083 1570.44220925 -743.70141602 1565.77099609 C-746.66295484 1561.95435432 -749.68209829 1558.19538283 -752.75488281 1554.46777344 C-759.94112092 1545.73946133 -766.6909118 1536.73326538 -773.32617188 1527.58105469 C-775.03968388 1525.21895237 -776.76130033 1522.86294499 -778.484375 1520.5078125 C-784.77826576 1511.88122097 -790.89233705 1503.16513877 -796.73193359 1494.22460938 C-798.18779828 1491.99566718 -799.65073556 1489.77143842 -801.11328125 1487.546875 C-847.02319798 1417.51844852 -883.47314704 1342.55546113 -910.0625 1263.1875 C-910.45791992 1262.01590332 -910.85333984 1260.84430664 -911.26074219 1259.63720703 C-937.4935857 1181.57317429 -952.42177144 1099.64612588 -913.72668457 667.24975586 C-913.06875695 665.20692747 -912.41926153 663.16161051 -911.77246094 661.11523438 C-886.54392558 581.41684567 -849.31889821 503.77621711 -799.34472656 429.06152344 C-797.89640287 426.94474265 -796.45994532 424.82012836 -795.0234375 422.6953125 C-779.18644357 399.33180274 -762.412285 376.65923088 -744.45410156 354.87890625 C-742.45631881 352.45072399 -740.48068576 350.00463585 -738.5 347.5625 C-730.75514339 338.1154771 -722.78864035 328.86753367 -714.51171875 319.8828125 C-712.59231613 317.77055125 -710.71001488 315.63848712 -708.83935547 313.48364258 C-705.35973703 309.50375536 -701.80117189 305.60848549 -698.18359375 301.75390625 C-697.54264267 301.07090958 -696.90169159 300.3879129 -696.24131775 299.68421936 C-689.38298932 292.41361427 -682.34881839 285.32238549 -675.27124023 278.26586914 C-673.09825665 276.09832358 -670.93077637 273.925375 -668.76367188 271.75195312 C-667.35448771 270.34342873 -665.94499394 268.935214 -664.53515625 267.52734375 C-663.90166763 266.8918309 -663.26817902 266.25631805 -662.61549377 265.60154724 C-658.83410489 261.8396454 -654.94079745 258.26059233 -650.89768982 254.78114319 C-647.88047092 252.16104891 -644.97719977 249.42041748 -642.0625 246.6875 C-637.13741638 242.09595669 -632.18783657 237.55601117 -627.0625 233.1875 C-626.13566406 232.3934375 -625.20882813 231.599375 -624.25390625 230.78125 C-603.87074316 213.38246798 -582.76173538 196.91049071 -561.0625 181.1875 C-560.40056641 180.70667969 -559.73863281 180.22585937 -559.05664062 179.73046875 C-537.10956789 163.84624689 -514.3793514 148.97322706 -491.0625 135.1875 C-489.62994873 134.33430176 -489.62994873 134.33430176 -488.16845703 133.46386719 C-440.89809035 105.33513913 -391.49801611 81.47860879 -340.08874512 61.95709229 C-338.08722992 61.19689272 -336.08707328 60.43319239 -334.08691406 59.66943359 C-253.0147323 28.81343507 -166.93015582 10.16183423 -73 2.375 C-72.24676453 2.31751587 -71.49352905 2.26003174 -70.71746826 2.20080566 C-65.50189053 1.81186101 -60.28418797 1.48252924 -55.0625 1.1875 C-54.23825531 1.14017731 -53.41401062 1.09285461 -52.56478882 1.0440979 C-35.04995523 0.07297801 -17.53597539 -0.01449582 0 0 Z " fill="#B869D5" transform="translate(999.0625,39.8125)"/>
<path d="M0 0 C0.72488239 0.00026688 1.44976479 0.00053375 2.19661331 0.00080872 C25.84616873 0.01171202 49.41292406 0.32215511 73 2.1875 C73.83631958 2.25302063 74.67263916 2.31854126 75.53430176 2.38604736 C162.52556863 9.27034998 247.65983719 26.69546603 499.25048828 132.56884766 C502.79208285 134.65380344 506.37522166 136.65955495 509.96166992 138.66601562 C521.30700454 145.0303937 532.19253015 151.99736796 543.01904297 159.20361328 C546.07183801 161.23530964 549.13117405 163.25687044 552.19140625 165.27734375 C578.46967374 182.66518353 604.03703564 200.98084933 628.3671875 221.01953125 C630.11729526 222.46064373 631.87249612 223.89559403 633.6328125 225.32421875 C643.91787377 233.67520873 653.97483988 242.28348515 663.78515625 251.1875 C665.77412502 252.98353529 667.78563194 254.74703303 669.8125 256.5 C677.53925847 263.23735647 685.11730706 270.17944117 692.28759766 277.50756836 C694.0002048 279.18770091 695.77557456 280.74124541 697.6015625 282.296875 C702.46676558 286.53114557 707.01437211 291.05509337 711.5625 295.625 C712.77969727 296.83639648 712.77969727 296.83639648 714.02148438 298.07226562 C718.34727459 302.40503855 722.49993208 306.81956389 726.49194336 311.46118164 C728.39705629 313.64202243 730.42212143 315.67164766 732.5 317.6875 C735.87100065 321.01870807 739.0451403 324.43861628 742.12890625 328.03515625 C744.33079829 330.56802162 746.60195826 333.03082522 748.875 335.5 C752.92521292 339.94000784 756.75534122 344.50684281 760.52734375 349.18359375 C763.40883633 352.68417478 766.38744562 356.09007325 769.375 359.5 C774.98515046 365.92839877 780.31467734 372.52630759 785.52392578 379.28173828 C787.11871479 381.34077285 788.72812291 383.3877889 790.33984375 385.43359375 C798.50828699 395.82420855 806.34419565 406.41477437 814 417.1875 C814.51836426 417.91356445 815.03672852 418.63962891 815.57080078 419.38769531 C822.57311107 429.19663514 829.3958946 439.10619403 836 449.1875 C836.42603516 449.8362207 836.85207031 450.48494141 837.29101562 451.15332031 C848.99128514 468.99839804 860.16957851 487.12442496 870.61962891 505.73095703 C871.90046394 508.01036313 873.18958375 510.28486995 874.48046875 512.55859375 C894.26536383 547.5830964 911.90535522 583.90583213 927 621.1875 C927.28554749 621.89094543 927.57109497 622.59439087 927.86529541 623.31915283 C962.57288271 708.9444892 985.33460463 798.9768471 923.375 1386.6875 C915.01030112 1406.33372848 906.01563422 1425.63424461 896.64550781 1444.81738281 C895.62922898 1446.89879424 894.61510519 1448.98126137 893.60449219 1451.06542969 C887.39175851 1463.86873073 880.56283719 1476.25475069 873.47949219 1488.59570312 C871.8281944 1491.48847166 870.21197749 1494.3992197 868.60083008 1497.31445312 C858.55693125 1515.43267363 847.40462975 1532.90343957 836 1550.1875 C835.30777344 1551.24582031 834.61554688 1552.30414062 833.90234375 1553.39453125 C812.4656143 1585.93648784 788.69788627 1616.95063702 763.38574219 1646.56347656 C761.94270908 1648.25464221 760.50625183 1649.95124619 759.0703125 1651.6484375 C753.14195714 1658.63535875 747.06505253 1665.45067319 740.81640625 1672.15234375 C738.25536657 1674.90084008 735.74776222 1677.69376629 733.25 1680.5 C729.99374272 1684.13830912 726.63146207 1687.61848992 723.1171875 1691.0078125 C721.26009059 1692.91973146 719.524595 1694.87672275 717.78515625 1696.89453125 C713.89491758 1701.370375 709.76575503 1705.56944482 705.5625 1709.75 C704.49418945 1710.82411133 704.49418945 1710.82411133 703.40429688 1711.91992188 C699.33084402 1715.98597518 695.15168156 1719.85572239 690.79272461 1723.61303711 C688.4168506 1725.69965177 686.20533124 1727.92256521 684 1730.1875 C680.5095856 1733.71504647 676.95355686 1737.06134474 673.18359375 1740.28515625 C670.99209941 1742.19438299 668.85671069 1744.15756541 666.7265625 1746.13476562 C661.60190009 1750.88873545 656.36514372 1755.41865051 650.91796875 1759.8046875 C647.54025139 1762.56293059 644.23811758 1765.4004343 640.9375 1768.25 C635.3885841 1773.0260471 629.76676169 1777.67506814 624 1782.1875 C623.38205566 1782.67412109 622.76411133 1783.16074219 622.12744141 1783.66210938 C610.59123442 1792.74351568 598.88683645 1801.57038763 587 1810.1875 C586.35401855 1810.65768555 585.70803711 1811.12787109 585.04248047 1811.61230469 C547.8562411 1838.59113136 508.5698045 1862.66693734 468 1884.1875 C467.41581299 1884.49774109 466.83162598 1884.80798218 466.22973633 1885.12762451 C445.17534042 1896.29648943 423.85617625 1906.6807704 402 1916.1875 C401.29441956 1916.49473999 400.58883911 1916.80197998 399.86187744 1917.11853027 C325.81113725 1949.29222774 248.11676531 1972.24279909 75.75 1996.9375 C74.96425598 1996.99666595 74.17851196 1997.05583191 73.36895752 1997.11679077 C67.91522121 1997.52030995 62.4595638 1997.87280281 57 1998.1875 C55.74449341 1998.2600853 55.74449341 1998.2600853 54.46362305 1998.33413696 C36.98281038 1999.30490888 19.50198443 1999.38948376 2 1999.375 C1.27511761 1999.37473312 0.55023521 1999.37446625 -0.19661331 1999.37419128 C-23.84783489 1999.36328721 -47.41051447 1999.03592066 -71 1997.1875 C-71.82218018 1997.12433594 -72.64436035 1997.06117187 -73.49145508 1996.99609375 C-130.04357155 1992.6240874 -185.93605715 1983.80580029 -241 1970.1875 C-241.77972168 1969.9956311 -242.55944336 1969.80376221 -243.36279297 1969.6060791 C-320.44481232 1950.60670903 -394.82375555 1921.54960764 -497 1867.1875 C-498.83443957 1866.11815354 -500.66908069 1865.04915278 -502.50390625 1863.98046875 C-529.09060965 1848.44188405 -554.97447102 1831.62737215 -579.97558594 1813.64257812 C-582.15901533 1812.07320534 -584.34893753 1810.51313797 -586.5390625 1808.953125 C-600.21187313 1799.18354925 -613.30340285 1788.80033125 -626.3203125 1778.1796875 C-629.23586542 1775.80311948 -632.17365227 1773.45704854 -635.125 1771.125 C-644.57567713 1763.58034179 -653.6480361 1755.58531624 -662.55859375 1747.4140625 C-664.66154833 1745.49616793 -666.78669156 1743.61373955 -668.9375 1741.75 C-676.87552915 1734.8367574 -684.55522064 1727.7062264 -691.9453125 1720.2109375 C-693.78110973 1718.40306114 -695.65858049 1716.72509504 -697.625 1715.0625 C-706.46174878 1707.47036372 -714.82099878 1698.97546803 -722.33203125 1690.07421875 C-724.45529956 1687.67248902 -726.7197784 1685.44045437 -729 1683.1875 C-732.52754647 1679.6970856 -735.87384474 1676.14105686 -739.09765625 1672.37109375 C-741.00680724 1670.17968635 -742.96991316 1668.04438272 -744.94702148 1665.91430664 C-749.68502092 1660.80692308 -754.19321863 1655.58664256 -758.5625 1650.15625 C-761.42926803 1646.66467355 -764.39793318 1643.27240453 -767.375 1639.875 C-772.98520685 1633.44665488 -778.31468082 1626.84868789 -783.52392578 1620.09326172 C-785.11871479 1618.03422715 -786.72812291 1615.9872111 -788.33984375 1613.94140625 C-796.50828699 1603.55079145 -804.34419565 1592.96022563 -812 1582.1875 C-812.51836426 1581.46143555 -813.03672852 1580.73537109 -813.57080078 1579.98730469 C-820.57311107 1570.17836486 -827.3958946 1560.26880597 -834 1550.1875 C-834.63905273 1549.21441895 -834.63905273 1549.21441895 -835.29101562 1548.22167969 C-846.99128514 1530.37660196 -858.16957851 1512.25057504 -868.61962891 1493.64404297 C-869.90046394 1491.36463687 -871.18958375 1489.09013005 -872.48046875 1486.81640625 C-892.26536383 1451.7919036 -909.90535522 1415.46916787 -925 1378.1875 C-925.28554749 1377.48405457 -925.57109497 1376.78060913 -925.86529541 1376.05584717 C-947.13566743 1323.58078624 -963.98546135 1269.53168469 -976 1214.1875 C-976.17039795 1213.40749634 -976.3407959 1212.62749268 -976.51635742 1211.82385254 C-990.95970645 1145.55576289 -997.99644938 1077.96785141 -999 1010.1875 C-999.02489502 1008.70612549 -999.02489502 1008.70612549 -999.05029297 1007.19482422 C-999.14038876 1001.18955072 -999.10091442 995.19239815 -999 989.1875 C-998.98211426 987.9794873 -998.96422852 986.77147461 -998.94580078 985.52685547 C-997.51907011 895.36978093 -984.40704321 805.6607304 -894.64550781 554.55761719 C-893.62922898 552.47620576 -892.61510519 550.39373863 -891.60449219 548.30957031 C-885.44991615 535.62612147 -878.69406883 523.35403442 -871.67773438 511.12841797 C-870.00162247 508.19034404 -868.34877787 505.24038484 -866.703125 502.28515625 C-860.35480136 490.89969947 -853.75177597 479.75583007 -846.68212891 468.80419922 C-844.78856068 465.85858758 -842.91512132 462.90067306 -841.04296875 459.94140625 C-833.9773507 448.79457678 -826.81505965 437.82242653 -819 427.1875 C-817.8173481 425.53358074 -816.64177347 423.8747818 -815.46655273 422.21557617 C-805.33997643 407.93513232 -794.96802815 393.83442476 -784 380.1875 C-783.4858252 379.5471582 -782.97165039 378.90681641 -782.44189453 378.24707031 C-776.34732463 370.67142289 -770.18581456 363.1585556 -763.87402344 355.76269531 C-761.10398074 352.5131834 -758.41238724 349.21291833 -755.75 345.875 C-751.25627715 340.34301628 -746.40140723 335.18055161 -741.49121094 330.02026367 C-738.37312104 326.7406511 -735.3156053 323.43182979 -732.3515625 320.01171875 C-728.9581024 316.10062027 -725.33392448 312.48632121 -721.625 308.875 C-719.56586202 306.76683493 -717.63624587 304.63922402 -715.71484375 302.41015625 C-711.85113987 297.95493049 -707.74235558 293.7822821 -703.5625 289.625 C-702.85029297 288.90892578 -702.13808594 288.19285156 -701.40429688 287.45507812 C-697.33084402 283.38902482 -693.15168156 279.51927761 -688.79272461 275.76196289 C-686.4168506 273.67534823 -684.20533124 271.45243479 -682 269.1875 C-678.5095856 265.65995353 -674.95355686 262.31365526 -671.18359375 259.08984375 C-668.99209941 257.18061701 -666.85671069 255.21743459 -664.7265625 253.24023438 C-659.59708926 248.48180171 -654.35550101 243.94772032 -648.90234375 239.55859375 C-645.61036472 236.86918423 -642.40005506 234.09568046 -639.1875 231.3125 C-632.91314997 225.89995492 -626.47073664 220.74466096 -619.91748047 215.67529297 C-617.86710005 214.08438155 -615.82563094 212.48249999 -613.78515625 210.87890625 C-567.49888743 174.5655265 -517.96333358 142.75184717 -466 115.1875 C-465.12371948 114.72213837 -465.12371948 114.72213837 -464.22973633 114.24737549 C-390.79615914 75.29257916 -312.34765024 46.26538298 -55 1.1875 C-54.16299561 1.1391098 -53.32599121 1.0907196 -52.46362305 1.04086304 C-34.98281038 0.07009112 -17.50198443 -0.01448376 0 0 Z M-69 35.1875 C-69.81184753 35.25066406 -70.62369507 35.31382813 -71.46014404 35.37890625 C-155.39308387 41.99415063 -237.54747636 58.90496915 -317.0947876 86.52661133 C-318.88163559 87.14644122 -320.67001387 87.76185462 -322.45849609 88.37695312 C-379.14929 107.93799383 -434.85770242 133.7011997 -486.29345703 164.56445312 C-488.90695199 166.13170141 -491.52831539 167.68484318 -494.15234375 169.234375 C-512.1816062 179.91623401 -529.85055467 191.14226207 -547 203.1875 C-548.36450903 204.13942944 -549.72909404 205.09124996 -551.09375 206.04296875 C-566.72655843 216.97938916 -582.1272195 228.23425206 -597 240.1875 C-597.6403418 240.7016748 -598.28068359 241.21584961 -598.94042969 241.74560547 C-606.51686098 247.84080599 -614.03109487 254.00236739 -621.42700195 260.31567383 C-624.65348118 263.06659829 -627.93207479 265.73562792 -631.25 268.375 C-637.03968431 273.07646171 -642.41929048 278.19192339 -647.81152344 283.34057617 C-651.18644002 286.5602466 -654.58337104 289.72368959 -658.11328125 292.7734375 C-661.74718871 295.92309127 -665.1409641 299.24916577 -668.5 302.6875 C-671.87972703 306.1140537 -675.23071836 309.48547266 -678.9375 312.5625 C-683.52765794 316.45688663 -687.49881038 320.93087715 -691.5703125 325.35131836 C-695.43592655 329.54027405 -699.37882383 333.62316985 -703.4375 337.625 C-707.1733277 341.31740888 -710.76316463 345.0729526 -714.16796875 349.07421875 C-716.04894563 351.24395967 -717.98928109 353.35220243 -719.94287109 355.45654297 C-724.70328977 360.58701805 -729.23848482 365.83039024 -733.62890625 371.28515625 C-736.31831577 374.57713528 -739.09181954 377.78744494 -741.875 381 C-747.28625049 387.27284932 -752.43991422 393.71375651 -757.5078125 400.265625 C-759.11074785 402.33013859 -760.72632058 404.38432476 -762.34375 406.4375 C-769.96172233 416.1299146 -777.31694699 425.97742383 -784.46044922 436.02441406 C-785.91660121 438.07032378 -787.38117191 440.10992749 -788.84765625 442.1484375 C-802.18179773 460.76557043 -814.97220269 479.83005382 -826.50195312 499.61962891 C-828.13145741 502.41283719 -829.77615764 505.19678461 -831.421875 507.98046875 C-839.23383867 521.2321992 -846.77259809 534.60834082 -854 548.1875 C-854.56267578 549.23905273 -855.12535156 550.29060547 -855.70507812 551.37402344 C-877.43198548 592.12091829 -895.77336314 634.60026075 -911 678.1875 C-911.35387787 679.19822571 -911.35387787 679.19822571 -911.71490479 680.22937012 C-923.72601866 714.60229569 -934.17652899 749.61430436 -942 785.1875 C-942.23046021 786.23342316 -942.23046021 786.23342316 -942.46557617 787.30047607 C-951.26336103 827.35384023 -957.80876362 867.71740098 -961.74285889 908.54083252 C-961.98765717 911.06045938 -962.24310487 913.57880059 -962.50048828 916.09716797 C-968.05426145 971.62218753 -967.91269315 1030.20889708 -962.25 1085.7164917 C-961.98876381 1088.29855888 -961.74141752 1090.88170706 -961.49609375 1093.46533203 C-952.83581629 1183.63981074 -931.5304326 1273.07186327 -832.64208984 1489.41796875 C-831.10323323 1492.01338793 -829.57586614 1494.61522328 -828.05078125 1497.21875 C-797.89805577 1548.40288595 -761.92185186 1597.00099857 -721.9921875 1640.98046875 C-720.23806619 1642.92376001 -718.52027306 1644.89109448 -716.8125 1646.875 C-708.38457626 1656.53484763 -699.4966955 1665.77497275 -690.375 1674.77734375 C-688.33215569 1676.85042754 -686.43353388 1678.96114958 -684.5625 1681.1875 C-681.27512997 1685.03708058 -677.59022412 1688.3839292 -673.83325195 1691.76074219 C-669.84280964 1695.3646935 -666.02743925 1699.11169546 -662.25 1702.9375 C-658.31338719 1706.91549639 -654.34795814 1710.76664898 -650.078125 1714.390625 C-647.91926722 1716.25730654 -645.8247668 1718.18623635 -643.73339844 1720.12792969 C-638.6245053 1724.86890507 -633.40155823 1729.37877498 -627.96875 1733.75 C-624.47717788 1736.61676448 -621.08482018 1739.58534156 -617.6875 1742.5625 C-611.18388495 1748.24109728 -604.50586125 1753.64032872 -597.66455078 1758.90527344 C-596.07264252 1760.13154246 -594.48732658 1761.3663552 -592.90234375 1762.6015625 C-562.88444128 1785.90243749 -531.54727904 1807.57106639 -499 1827.1875 C-498.12601562 1827.71649902 -497.25203125 1828.24549805 -496.3515625 1828.79052734 C-482.13796677 1837.37275825 -467.6564187 1845.38951723 -453 1853.1875 C-452.16903809 1853.6319043 -451.33807617 1854.07630859 -450.48193359 1854.53417969 C-445.00913763 1857.46005088 -439.51512876 1860.34223923 -434 1863.1875 C-433.11473633 1863.64447266 -432.22947266 1864.10144531 -431.31738281 1864.57226562 C-356.81582444 1902.84591987 -276.0358853 1930.03619125 -71.25 1963.9375 C-70.10739716 1964.02624893 -70.10739716 1964.02624893 -68.94171143 1964.11679077 C-45.94957347 1965.87247772 -22.9929309 1966.39542741 0.0625 1966.375 C1.07984411 1966.37459969 1.07984411 1966.37459969 2.11774063 1966.37419128 C24.79779872 1966.36302637 47.38386073 1965.98553653 70 1964.1875 C70.83349976 1964.12197937 71.66699951 1964.05645874 72.52575684 1963.98895264 C125.73673804 1959.7697268 178.08694052 1951.62091464 230 1939.1875 C230.74020386 1939.01152283 231.48040771 1938.83554565 232.24304199 1938.65423584 C301.13082322 1922.2662155 367.24752736 1896.93239298 430.74267578 1865.78466797 C433.64656254 1864.36080144 436.55505353 1862.94690114 439.46484375 1861.53515625 C451.38721725 1855.70837986 462.91493176 1849.26312897 474.42138672 1842.65820312 C476.63739567 1841.39431012 478.86177266 1840.15012338 481.09765625 1838.921875 C510.54014718 1822.73962549 538.83114708 1803.92818923 566 1784.1875 C566.763125 1783.63400879 567.52625 1783.08051758 568.3125 1782.51025391 C583.65439864 1771.35725908 598.49260106 1759.67122249 613.17822266 1747.67285156 C614.81669895 1746.33695103 616.46074048 1745.00788316 618.10546875 1743.6796875 C623.4341051 1739.36567161 628.5977922 1734.91974584 633.66796875 1730.3046875 C635.75823889 1728.40698831 637.86986115 1726.54016585 640 1724.6875 C644.71598417 1720.57516181 649.36257799 1716.38806341 654 1712.1875 C654.95132812 1711.33027344 655.90265625 1710.47304687 656.8828125 1709.58984375 C662.68159922 1704.33969388 668.29239972 1698.95048654 673.78515625 1693.38085938 C676.39112297 1690.75095333 679.02930221 1688.24237837 681.875 1685.875 C686.53384499 1681.91498176 690.57342859 1677.37216978 694.71069336 1672.88330078 C698.2120391 1669.08786271 701.76092516 1665.37605702 705.4375 1661.75 C708.79699282 1658.42862136 711.96271049 1655.02711226 715.03125 1651.4375 C717.07772986 1649.09866588 719.18393108 1646.82692406 721.30517578 1644.55615234 C726.3002757 1639.20681205 731.07937607 1633.76485651 735.6640625 1628.0546875 C738.33875016 1624.77170967 741.10219348 1621.57496861 743.875 1618.375 C749.28631548 1612.1022113 754.43991785 1605.6612388 759.5078125 1599.109375 C761.11074785 1597.04486141 762.72632058 1594.99067524 764.34375 1592.9375 C772.51042387 1582.54748618 780.35329381 1571.96488983 788 1561.1875 C788.54591797 1560.42276367 789.09183594 1559.65802734 789.65429688 1558.87011719 C811.10172971 1528.80116672 830.59913378 1497.49873775 848.37988281 1465.13525391 C849.96202427 1462.25659568 851.55443321 1459.38382103 853.1484375 1456.51171875 C877.03112475 1413.31954377 896.72894998 1367.76443991 913 1321.1875 C913.23591858 1320.51368286 913.47183716 1319.83986572 913.71490479 1319.14562988 C940.85600833 1241.47430469 957.92867082 1160.79601326 964.75 1078.8125 C964.80916595 1078.10198486 964.86833191 1077.39146973 964.92929077 1076.65942383 C966.37059112 1059.07273096 967.16030869 1041.52747956 967.203125 1023.8828125 C967.21014737 1022.08167497 967.21723419 1020.28053768 967.22438049 1018.47940063 C967.24377449 1012.75709676 967.24881435 1007.03483343 967.25 1001.3125 C967.25044186 1000.33777237 967.25088371 999.36304474 967.25133896 998.35877991 C967.25827308 969.19602874 967.00900113 940.2219978 964 911.1875 C963.82117261 909.40723826 963.64246506 907.62696447 963.46386719 905.84667969 C955.13544122 823.99077438 937.02392199 744.05447589 890 619.1875 C889.5265918 618.09937012 889.05318359 617.01124023 888.56542969 615.89013672 C872.64965612 579.47521718 854.93428191 544.14552926 834.64208984 509.95703125 C833.10323323 507.36161207 831.57586614 504.75977672 830.05078125 502.15625 C799.89841181 450.97271843 763.92150534 402.38728803 724 358.40234375 C722.20396471 356.41337498 720.44046697 354.40186806 718.6875 352.375 C711.14274429 343.73503782 703.30907701 335.40446528 695.14306641 327.35205078 C692.52984808 324.76286205 690.04032413 322.13949022 687.6875 319.3125 C683.74753717 314.67894958 679.23197442 310.6618007 674.76611328 306.54711914 C670.77306658 302.8628641 666.88032096 299.1157434 663.0625 295.25 C659.53942483 291.69065787 655.95726665 288.30385196 652.1484375 285.0546875 C649.96754262 283.15929159 647.84544254 281.2072348 645.7277832 279.24169922 C640.51626477 274.4060313 635.1786799 269.81824246 629.63671875 265.359375 C627.07579972 263.24993651 624.62876545 261.05862352 622.1875 258.8125 C616.62650879 253.75226156 610.73071235 249.17451399 604.78808594 244.57714844 C603.08233738 243.25149022 601.38684971 241.91403812 599.6953125 240.5703125 C561.86733616 210.53983995 521.5721212 183.1156601 479.40820312 159.53564453 C477.14764145 158.27015167 474.89346157 156.99402287 472.640625 155.71484375 C402.53323631 116.09592358 327.39260766 85.88423194 71 35.1875 C70.30757202 35.13529297 69.61514404 35.08308594 68.9017334 35.02929688 C23.25047337 31.61867642 -23.35913191 31.6110879 -69 35.1875 Z " fill="#B968D5" transform="translate(999,-0.1875)"/>
<path d="M0 0 C121.5097493 0 121.5097493 0 145 9 C145.6614502 9.25120605 146.32290039 9.50241211 147.00439453 9.76123047 C169.74520967 18.55492005 186.71061832 33.39829136 196.75 55.8125 C207.52390696 83.29324242 207.62910806 116.81303117 196 144 C192.28834716 152.43412913 188.04600529 160.00353099 182 167 C181.14535156 168.08667969 181.14535156 168.08667969 180.2734375 169.1953125 C172.32744925 178.89956198 161.42380315 185.99879585 150 191 C151.32555328 195.22828226 152.9287211 199.14017301 154.87109375 203.12109375 C155.43916748 204.29075684 156.00724121 205.46041992 156.5925293 206.66552734 C157.20750175 207.92286026 157.82249245 209.18018425 158.4375 210.4375 C159.40172946 212.4192173 160.36466571 214.40155983 161.32759094 216.38391113 C161.97419944 217.71477053 162.62124394 219.04541819 163.26872253 220.37585449 C165.93774611 225.86166499 168.56742248 231.36565537 171.1875 236.875 C176.22670342 247.44835445 181.3643008 257.97331213 186.5 268.5 C200.36389765 296.9253984 200.36389765 296.9253984 207 311 C207.27346252 311.57979614 207.54692505 312.15959229 207.82867432 312.75695801 C209.65539459 316.63220108 211.47573421 320.51036886 213.28936768 324.39175415 C213.88369801 325.66278905 214.47918066 326.93328583 215.0758667 328.20321655 C215.9020518 329.96311759 216.72264271 331.72564156 217.54296875 333.48828125 C218.01758545 334.50446533 218.49220215 335.52064941 218.98120117 336.56762695 C220 339 220 339 220 341 C197.89 341 175.78 341 153 341 C144.9617835 323.77525037 144.9617835 323.77525037 142.01171875 317.0078125 C141.67108398 316.23060349 141.33044922 315.45339447 140.97949219 314.65263367 C139.88049746 312.14414715 138.78397649 309.63458814 137.6875 307.125 C136.9029327 305.33284672 136.11817931 303.54077491 135.33325195 301.7487793 C134.11484715 298.96694983 132.89662688 296.18504063 131.67912292 293.40281677 C128.88587385 287.01978711 126.08588356 280.63975378 123.28125 274.26171875 C115.8307468 257.31622176 108.39696653 240.36424644 101.05737305 223.37036133 C100.57695557 222.25814209 100.09653809 221.14592285 99.6015625 220 C99.15844727 218.97261719 98.71533203 217.94523438 98.25878906 216.88671875 C96.77115349 213.47519761 95.23612095 210.08655282 93.67724609 206.70703125 C93 205 93 205 93 203 C83.1 203 73.2 203 63 203 C63 248.54 63 294.08 63 341 C42.21 341 21.42 341 0 341 C0 228.47 0 115.94 0 0 Z " fill="#FEFEFE" transform="translate(593,728)"/>
<path d="M0 0 C0.95648437 0.20496094 1.91296875 0.40992188 2.8984375 0.62109375 C20.41898243 4.75717547 36.46781608 14.38542024 50 26 C50.91394531 26.77988281 51.82789063 27.55976562 52.76953125 28.36328125 C60.33111372 34.97290484 60.33111372 34.97290484 62 39 C55.66283638 46.41048503 49.31409646 53.81090222 42.9375 61.1875 C42.1163269 62.13991577 42.1163269 62.13991577 41.27856445 63.11157227 C40.76253662 63.70768311 40.24650879 64.30379395 39.71484375 64.91796875 C39.03603149 65.70337036 39.03603149 65.70337036 38.34350586 66.50463867 C36.94659221 68.05944443 35.49053788 69.5351752 34 71 C29.94725052 69.62508854 27.36616879 67.77577591 24.1875 64.9375 C7.0624896 50.6628269 -13.61590851 43.13726063 -36 45 C-46.2424558 46.91901542 -54.32112346 51.87286457 -60.375 60.375 C-67.71276442 72.30648952 -68.64441917 86.75944301 -65.8046875 100.27734375 C-61.77441709 113.91374412 -51.98169939 121.81644038 -39.93994141 128.48046875 C-28.16038292 134.71972172 -15.73637345 139.78804361 -3.4375 144.90234375 C20.73045896 155.02589039 45.98112375 170.59335897 59 194 C59.46019531 194.81082031 59.92039062 195.62164063 60.39453125 196.45703125 C68.96708656 212.48848665 70.42780286 230.07839808 70.375 247.9375 C70.37445618 248.63721924 70.37391235 249.33693848 70.37335205 250.05786133 C70.33580586 260.58641468 69.63987752 270.02990071 66 280 C65.55799815 281.33531084 65.11796938 282.67127605 64.6796875 284.0078125 C59.99230513 297.80346385 53.34021904 309.57977926 43 320 C42.175 320.86625 41.35 321.7325 40.5 322.625 C39.675 323.40875 38.85 324.1925 38 325 C37.40316406 325.59167969 36.80632812 326.18335938 36.19140625 326.79296875 C15.45778611 346.46137537 -13.42756498 352.44427364 -41.0625 352.375 C-41.87915131 352.37445618 -42.69580261 352.37391235 -43.53720093 352.37335205 C-56.05063886 352.33505421 -67.9675918 351.74042227 -80 348 C-81.03012207 347.68651611 -81.03012207 347.68651611 -82.08105469 347.36669922 C-106.49264339 339.66961114 -126.18031411 324.94858055 -144 307 C-142.51993197 303.63551546 -140.60866795 301.25996355 -138.125 298.5625 C-137.32578125 297.68980469 -136.5265625 296.81710937 -135.703125 295.91796875 C-134.81109375 294.95503906 -133.9190625 293.99210937 -133 293 C-131.99466681 291.91287587 -130.98946263 290.82563242 -129.984375 289.73828125 C-128.4334006 288.06045773 -126.88223979 286.38281622 -125.32958984 284.70654297 C-121.47512368 280.53783369 -117.69730397 276.30918174 -114 272 C-110.26832557 273.29123683 -107.9344173 274.74699671 -105.125 277.5 C-86.2241073 294.71665473 -63.60496058 304.27600024 -37.96191406 303.11669922 C-27.33286221 302.48445845 -17.52363472 298.65620978 -10 291 C-9.34 291 -8.68 291 -8 291 C-7.7421875 290.47921875 -7.484375 289.9584375 -7.21875 289.421875 C-6.27636249 287.54918187 -5.31411898 285.68647314 -4.34375 283.828125 C-3.72897548 282.6355152 -3.11439705 281.44280431 -2.5 280.25 C-1.8915625 279.07953125 -1.283125 277.9090625 -0.65625 276.703125 C3.06402961 268.80864356 3.3383693 261.34895472 3.3125 252.75 C3.32861328 251.69425781 3.34472656 250.63851562 3.36132812 249.55078125 C3.37008673 235.23922003 -0.44902465 223.82845657 -10.25 213.25 C-20.91638186 203.31678408 -35.20791354 197.32068892 -48.6796875 192.2890625 C-78.87298119 180.56696024 -111.390917 161.84609925 -125.6640625 131.45703125 C-135.57884412 108.29863537 -136.91959043 80.8463559 -127.87646484 57.18359375 C-127.58723145 56.46300781 -127.29799805 55.74242187 -127 55 C-126.73268066 54.33097656 -126.46536133 53.66195312 -126.18994141 52.97265625 C-116.2932819 29.20609271 -96.44314435 13.17463105 -73.07421875 3.5390625 C-50.50327661 -5.29422338 -23.43713668 -5.79193608 0 0 Z " fill="#FEFEFE" transform="translate(1321,724)"/>
<path d="M0 0 C1.22428711 0.00491455 2.44857422 0.0098291 3.70996094 0.01489258 C13.20715862 0.13721448 22.05364565 0.96851657 31.25 3.3125 C31.90822754 3.47878906 32.56645508 3.64507813 33.24462891 3.81640625 C52.34521678 8.79075756 69.45446666 18.44885756 83.77734375 32.015625 C86.21518961 34.35555297 86.21518961 34.35555297 88.94140625 36.359375 C91.19692577 38.26759794 92.18354708 39.59789258 93.25 42.3125 C92.70472656 42.90675781 92.15945313 43.50101563 91.59765625 44.11328125 C87.54552458 48.56716273 83.59418496 53.06341186 79.8125 57.75 C75.17708695 63.482843 70.25900108 68.90612514 65.25 74.3125 C61.92769182 73.72748486 60.37442549 72.73278232 58 70.375 C41.7873274 55.75652341 21.27249244 47.41875644 -0.55078125 48 C-9.78703415 48.50140256 -18.10705555 51.83302846 -24.75 58.3125 C-34.79382153 69.75193227 -36.63676917 81.29354135 -35.94091797 95.984375 C-35.14349346 105.70846721 -31.41257208 113.32108852 -24.75 120.3125 C-24.27304688 120.82941406 -23.79609375 121.34632813 -23.3046875 121.87890625 C-11.63566136 133.08972455 6.2402802 139.37593437 20.91918945 145.546875 C49.33087222 157.52372079 79.99538825 173.84847538 93.25 203.3125 C95.35375859 208.52828842 96.86139848 213.86977409 98.25 219.3125 C98.5696875 220.48425781 98.889375 221.65601563 99.21875 222.86328125 C105.06360029 248.05566839 102.79210542 277.47943629 90.25 300.3125 C89.78851562 301.24835938 89.32703125 302.18421875 88.8515625 303.1484375 C85.21077865 310.32943106 80.59967889 316.31807154 75.25 322.3125 C74.49976563 323.158125 73.74953125 324.00375 72.9765625 324.875 C59.21462105 339.50563543 40.60502189 348.55823968 21.25 353.3125 C20.53465088 353.48910156 19.81930176 353.66570312 19.08227539 353.84765625 C9.90078688 355.82806398 0.65942132 355.70838957 -8.6875 355.6875 C-9.55583466 355.68728851 -10.42416931 355.68707703 -11.31881714 355.68685913 C-24.16406667 355.65557374 -36.39011668 355.12349012 -48.75 351.3125 C-49.98105469 350.95027344 -51.21210937 350.58804687 -52.48046875 350.21484375 C-70.95933807 344.16460352 -87.05863407 333.90509937 -101.75 321.3125 C-102.2661084 320.88614258 -102.7822168 320.45978516 -103.31396484 320.02050781 C-104.89082872 318.71773504 -106.44682147 317.39336816 -108 316.0625 C-108.93328125 315.27359375 -109.8665625 314.4846875 -110.828125 313.671875 C-112.75 311.3125 -112.75 311.3125 -112.8359375 308.81640625 C-111.45103802 305.62316681 -109.66540399 303.87539285 -107.125 301.5 C-103.47228802 297.99174555 -100.04376307 294.45024117 -96.75390625 290.60546875 C-92.20584372 285.40135042 -87.45195093 280.37732727 -82.75 275.3125 C-79.93691032 276.6268219 -77.58973473 278.096761 -75.16796875 280.03515625 C-74.15234863 280.83663086 -74.15234863 280.83663086 -73.11621094 281.65429688 C-72.39723633 282.22212891 -71.67826172 282.78996094 -70.9375 283.375 C-50.72496725 299.03516051 -30.87249659 307.94840187 -4.75 306.3125 C6.36708579 304.85872724 15.92563898 300.69165072 23.65625 292.4140625 C31.76420077 281.72269605 34.81921052 269.06466865 34.625 255.875 C34.61412354 254.86655029 34.60324707 253.85810059 34.59204102 252.8190918 C34.2933596 238.86672479 30.73445185 227.1042121 21.125 216.5625 C9.54469429 205.98137996 -6.29801411 200.00953766 -20.56591797 194.00585938 C-41.88181425 185.0250306 -61.10238851 174.53130937 -77.75 158.3125 C-78.74773437 157.42498047 -78.74773437 157.42498047 -79.765625 156.51953125 C-93.69628478 143.81251051 -100.94938422 123.34411557 -101.93017578 104.9296875 C-102.9925367 75.74712811 -97.9002019 53.03523219 -78.484375 30.70703125 C-58.25465682 9.10410372 -28.9948672 -0.13897234 0 0 Z " fill="#FEFEFE" transform="translate(1519.75,720.6875)"/>
<path d="M0 0 C55.77 0 111.54 0 169 0 C167.87473761 15.75367351 165.36599775 31.38441487 163 47 C130 47 97 47 63 47 C63 79.01 63 111.02 63 144 C91.71 144 120.42 144 150 144 C150 159.51 150 175.02 150 191 C121.29 191 92.58 191 63 191 C63 224.99 63 258.98 63 294 C97.98 294 132.96 294 169 294 C169 309.51 169 325.02 169 341 C113.23 341 57.46 341 0 341 C0 228.47 0 115.94 0 0 Z " fill="#FEFEFE" transform="translate(379,728)"/>
<path d="M0 0 C1.10666016 -0.00386719 2.21332031 -0.00773438 3.35351562 -0.01171875 C13.51612044 0.00028669 22.81977132 0.70685672 32.5625 3.6875 C33.42496338 3.95071045 34.28742676 4.2139209 35.17602539 4.48510742 C53.94393355 10.45962451 69.14474492 21.35791949 83.9375 34.125 C82.64826019 36.91323237 81.25130469 39.11496602 79.21484375 41.41015625 C78.41348999 42.3218457 78.41348999 42.3218457 77.59594727 43.25195312 C77.02803467 43.89068359 76.46012207 44.52941406 75.875 45.1875 C74.69410726 46.53149406 73.51442624 47.87655373 72.3359375 49.22265625 C71.75682617 49.88410645 71.17771484 50.54555664 70.58105469 51.22705078 C67.6023585 54.66679888 64.74705269 58.20289991 61.8828125 61.73828125 C59.29116152 64.91799761 56.62397628 68.02521967 53.9375 71.125 C52.77083333 70.25 51.60416667 69.375 50.4375 68.5 C49.32761719 67.67435547 49.32761719 67.67435547 48.1953125 66.83203125 C46.81776884 65.79053198 45.45415444 64.72981833 44.1171875 63.63671875 C28.70414183 51.25957601 11.34809682 47.70874301 -7.9140625 49.37109375 C-19.48699384 51.15295778 -30.18505889 58.56027758 -37.29052734 67.70556641 C-42.7615671 75.27227034 -47.03604716 83.2792624 -50.0625 92.125 C-50.69091797 93.93677734 -50.69091797 93.93677734 -51.33203125 95.78515625 C-56.03908112 110.43443119 -57.43758754 125.88920496 -59.0625 141.125 C-59.16925049 142.08349854 -59.27600098 143.04199707 -59.38598633 144.02954102 C-60.3466394 153.76695322 -60.26069741 163.53787349 -60.25 173.3125 C-60.24972809 174.24396851 -60.24945618 175.17543701 -60.24917603 176.13513184 C-60.2293862 190.89105695 -59.77474267 205.45496345 -58.0625 220.125 C-57.95534668 221.08229004 -57.84819336 222.03958008 -57.73779297 223.02587891 C-55.14438499 245.68705516 -50.6250862 267.84895432 -36.0625 286.125 C-34.9796875 287.671875 -34.9796875 287.671875 -33.875 289.25 C-27.06330885 297.16689931 -15.95590185 303.0359451 -5.578125 303.99609375 C16.41295959 305.1229661 30.61092089 299.33795567 48.22460938 286.37841797 C51.10981044 284.26715482 54.02505155 282.19845632 56.9375 280.125 C63.45497679 287.06153622 69.79510325 294.04266522 75.7578125 301.46875 C79.33167917 305.8239997 83.12931502 309.97470857 86.9375 314.125 C84.96288709 316.48490324 82.96980931 318.81535094 80.9375 321.125 C80.45410156 321.67671875 79.97070312 322.2284375 79.47265625 322.796875 C62.53203872 340.90135175 35.19853659 354.22564576 10.50341797 355.27026367 C7.295235 355.29064631 4.08716379 355.31068322 0.87890625 355.31030273 C-1.16167605 355.31247254 -3.20170164 355.33062467 -5.2421875 355.34960938 C-16.77326185 355.40091881 -27.86632788 354.32395584 -38.8125 350.5625 C-39.56273437 350.30710449 -40.31296875 350.05170898 -41.0859375 349.78857422 C-53.64361158 345.31831524 -65.10142722 339.01387398 -75.0625 330.125 C-75.866875 329.46242188 -76.67125 328.79984375 -77.5 328.1171875 C-106.34607163 303.68817059 -118.62189502 265.21645513 -124.0625 229.125 C-124.30806641 227.62114746 -124.30806641 227.62114746 -124.55859375 226.08691406 C-129.75885161 193.58530244 -129.47027377 157.57164261 -124.0625 125.125 C-123.89089355 124.0927832 -123.71928711 123.06056641 -123.54248047 121.99707031 C-116.9098094 83.81327492 -100.65847546 43.40046968 -68.0625 20.125 C-46.70871297 5.85681096 -25.53080566 -0.08952942 0 0 Z " fill="#FEFEFE" transform="translate(1082.0625,720.875)"/>
<path d="M0 0 C20.79 0 41.58 0 63 0 C63 112.86 63 225.72 63 342 C42.21 342 21.42 342 0 342 C0 229.14 0 116.28 0 0 Z " fill="#FEFDFE" transform="translate(845,727)"/>
<path d="M0 0 C48.71585903 0 48.71585903 0 62.98046875 12.7734375 C74.22074366 24.5170083 76.47237868 40.86200345 76.35571289 56.45239258 C75.92369341 73.06694403 72.51126626 88.8128697 60.2265625 100.71875 C43.53590943 114.52199052 19.95290999 112 0 112 C0 75.04 0 38.08 0 0 Z " fill="#CF6AC7" transform="translate(656,774)"/>
<path d="M0 0 C0.99 2.31 1.98 4.62 3 7 C7.95 7 12.9 7 18 7 C18.39832031 9.07539062 18.79664063 11.15078125 19.20703125 13.2890625 C19.60389577 15.35130504 20.00126625 17.4134495 20.39868164 19.47558594 C20.66971538 20.88336239 20.94024238 22.29123652 21.21020508 23.69921875 C21.60356837 25.75027502 21.99856836 27.80100656 22.39453125 29.8515625 C22.52538116 30.53035461 22.65623108 31.20914673 22.79104614 31.9085083 C23.90635279 37.63888577 25.15637965 43.33323569 26.45581055 49.02490234 C26.95744304 51.76734 27.10720721 54.22162695 27 57 C27.66 57 28.32 57 29 57 C29.0825 55.7521875 29.165 54.504375 29.25 53.21875 C30.03172767 45.41248359 31.79542925 37.78093357 33.43847656 30.12011719 C34.00432737 27.4798081 34.56134853 24.83774555 35.1171875 22.1953125 C35.47344726 20.51551653 35.8302 18.83582502 36.1875 17.15625 C36.35419189 16.3667395 36.52088379 15.577229 36.69262695 14.76379395 C37.88396012 9.23207975 37.88396012 9.23207975 39 7 C43.62 7 48.24 7 53 7 C45.41275168 40.1442953 45.41275168 40.1442953 41 56 C40.80937988 56.70141113 40.61875977 57.40282227 40.42236328 58.12548828 C33.64008957 82.99746865 33.64008957 82.99746865 24 90 C19.0103062 92.63149736 14.68299772 94.25280239 9 94 C7.8422494 90.52674819 7.93133348 87.63932552 8 84 C8.67546875 83.70867187 9.3509375 83.41734375 10.046875 83.1171875 C15.73994516 80.50100786 19.17062754 78.65874492 22 73 C22.495 71.515 22.495 71.515 23 70 C22.38995117 69.97365479 21.77990234 69.94730957 21.15136719 69.92016602 C19 69 19 69 17.70019531 66.15600586 C17.30705314 64.86880327 16.93464452 63.57516697 16.578125 62.27734375 C16.37141174 61.57141586 16.16469849 60.86548798 15.95172119 60.13816833 C13.24425145 50.69455307 11.01232723 41.12007394 8.75 31.5625 C8.08310909 28.75515872 7.41459515 25.94824161 6.74176025 23.14231873 C6.32744823 21.41374267 5.91663142 19.68432426 5.50970459 17.95399475 C4.88093254 14.16899859 4.88093254 14.16899859 3 11 C0.80489397 11.25361783 -1.38228739 11.57765908 -3.5625 11.9375 C-4.76003906 12.13214844 -5.95757813 12.32679687 -7.19140625 12.52734375 C-8.11824219 12.68332031 -9.04507812 12.83929687 -10 13 C-9.05125 13.7425 -8.1025 14.485 -7.125 15.25 C-3.47968722 18.10285348 -2.192012 20.51744583 -1.59375 25.13671875 C-1.40212744 32.39442316 -1.70580417 37.47654115 -6.28125 43.29296875 C-10.30775568 47.29202098 -15.18911946 48.93638743 -20.76171875 49.0625 C-21.72722656 49.041875 -22.69273438 49.02125 -23.6875 49 C-25.45793582 48.96248083 -27.22978561 48.95318441 -29 49 C-30.27003323 50.05310277 -30.27003323 50.05310277 -30.1875 52.4375 C-30.26839983 55.16734675 -30.26839983 55.16734675 -28 57 C-24.72400702 57.29309563 -21.49112641 57.41456102 -18.20507812 57.47851562 C-11.81157286 57.72327166 -7.13740085 59.14758593 -2.1875 63.4375 C1.71191 68.00538028 2.51013422 71.46693312 2.37890625 77.3984375 C1.54816093 83.10231771 -1.53380586 86.78879614 -5.875 90.375 C-11.96488398 93.54173967 -17.69729874 94.36452169 -24.4375 94.3125 C-25.18741211 94.30758545 -25.93732422 94.3026709 -26.70996094 94.29760742 C-33.63530829 94.15037206 -38.31247412 93.1617056 -43.875 88.6875 C-47.47962481 84.1287098 -48 80.7813893 -48 75 C-43.71 75 -39.42 75 -35 75 C-34.34 76.98 -33.68 78.96 -33 81 C-31.12725901 83.30529658 -31.12725901 83.30529658 -28.1015625 83.23046875 C-26.38066406 83.20919922 -26.38066406 83.20919922 -24.625 83.1875 C-23.48289062 83.18105469 -22.34078125 83.17460938 -21.1640625 83.16796875 C-18.58425671 83.0310161 -16.45262469 82.75511844 -14 82 C-13.72384942 80.40012764 -13.47992375 78.794667 -13.25 77.1875 C-13.11078125 76.29417969 -12.9715625 75.40085937 -12.828125 74.48046875 C-12.75840918 71.92384752 -12.75840918 71.92384752 -14.52734375 70.20703125 C-17.85713451 68.58158837 -20.61823061 68.58910801 -24.3125 68.5 C-30.60574707 68.2384114 -35.598711 67.80832821 -40.61328125 63.66796875 C-43.16973923 60.59301788 -43.23897272 56.88330664 -43 53 C-41.1875 49.625 -41.1875 49.625 -39 47 C-38.34 46.01 -37.68 45.02 -37 44 C-37.598125 43.7525 -38.19625 43.505 -38.8125 43.25 C-42.83665088 40.95048521 -44.76288603 37.37748019 -46 33 C-46.63379831 26.67294447 -46.44326397 20.50694205 -43 15 C-38.35799573 9.90585246 -33.77540039 6.36021332 -26.765625 5.69140625 C-25.60546875 5.64886719 -24.4453125 5.60632812 -23.25 5.5625 C-16.56453825 5.17006199 -10.86751701 4.066107 -4.9453125 0.90234375 C-3 0 -3 0 0 0 Z " fill="#FDFBFE" transform="translate(1568,1184)"/>
<path d="M0 0 C8.40191652 5.04393662 12.9996703 11.88441233 15.625 21.31640625 C19.14805673 37.15959237 17.60747219 55.38603965 10.5 70 C6.22826424 76.65888221 -0.18188658 79.56062886 -7.5 82 C-16.10212746 82.87309447 -23.35517121 81.60037726 -30.50390625 76.59765625 C-38.08134926 69.90397549 -41.89044833 58.40834139 -42.70483398 48.51049805 C-42.8040091 45.77422391 -42.82908537 43.05050798 -42.8125 40.3125 C-42.80686035 39.34151367 -42.8012207 38.37052734 -42.79541016 37.37011719 C-42.60061195 25.80180414 -40.95753118 15.24666983 -33.5 6 C-24.4209678 -2.56277351 -11.62788299 -5.30488671 0 0 Z " fill="#FDFCFE" transform="translate(974.5,1173)"/>
<path d="M0 0 C6.17985864 4.06104997 10.02296194 10.06947004 11.77734375 17.16796875 C14.255638 29.75278209 13.65180125 42.51860158 6.83984375 53.66796875 C2.56087996 58.85459152 -2.56516521 62.54696994 -9.390625 63.45703125 C-16.44666967 63.72421366 -22.21652291 61.89924132 -27.91015625 57.73046875 C-35.18893652 50.75218858 -36.48712375 42.66632693 -36.86547852 33.00048828 C-37.12945128 13.31071657 -37.12945128 13.31071657 -30.22265625 5.16796875 C-22.17131203 -2.59528594 -10.44048676 -4.70152998 0 0 Z " fill="#FDFBFD" transform="translate(808.22265625,1191.83203125)"/>
<path d="M0 0 C6.99833863 5.34990769 11.15905847 12.3174036 12.5 21 C13.5738843 33.73639559 12.66677967 45.61222642 4.5 56 C-0.49849706 61.44157713 -6.17185536 63.01378561 -13.375 63.4375 C-19.01864321 63.29169159 -23.10217787 61.49807649 -27.5 58 C-36.81042709 48.11140934 -36.95988412 36.86291741 -36.78515625 23.953125 C-36.48887438 16.06220086 -34.28870036 8.61844447 -28.5 3 C-20.74430408 -2.81677194 -8.83930509 -5.10487 0 0 Z " fill="#FDFBFD" transform="translate(476.5,1192)"/>
<path d="M0 0 C7.59521249 5.50652906 11.9047663 11.62091535 13.5 20.8125 C14.5806788 33.98010973 14.26075403 47.15152608 5.5 57.8125 C-0.89891505 62.87830775 -6.45745393 64.62461377 -14.5 63.8125 C-21.50871145 62.52327214 -26.24592815 59.5361603 -30.5 53.8125 C-36.73456273 43.08677809 -37.51492627 28.22574969 -34.375 16.3125 C-31.76509545 9.03417463 -27.32472346 3.52158883 -20.5 -0.1875 C-14.13753191 -2.26646435 -6.27084288 -2.12760741 0 0 Z " fill="#FDFCFE" transform="translate(1501.5,1191.1875)"/>
<path d="M0 0 C2.05770452 1.214645 3.70788674 2.49146474 5.44921875 4.125 C6.01125 4.63289063 6.57328125 5.14078125 7.15234375 5.6640625 C14.67735273 13.37171733 14.88234452 22.9352587 14.80517578 33.14428711 C14.54850986 42.5875321 12.8147971 51.01206099 5.70703125 57.78515625 C-1.21662624 63.8613121 -7.52709767 63.93489676 -16.51025391 63.38574219 C-21.24057157 62.78129384 -24.40142234 60.58005289 -27.55078125 57.125 C-35.25286783 46.91925748 -35.52793859 34.41100324 -34.55078125 22.125 C-32.97673492 12.97944615 -28.93022616 6.65958368 -21.55078125 1.125 C-15.81387141 -2.55747591 -6.31287423 -2.16551888 0 0 Z " fill="#FDFCFE" transform="translate(1414.55078125,1190.875)"/>
<path d="M0 0 C0.33 10.23 0.66 20.46 1 31 C3.97 28.525 3.97 28.525 7 26 C10.71236414 24.14381793 14.94843088 24.55190019 19 25 C23.48035444 27.19944673 25.86312614 29.50131818 28 34 C28.94661597 37.07291709 29.12162747 39.83552071 29.11352539 43.04394531 C29.11344986 44.04468079 29.11337433 45.04541626 29.11329651 46.07647705 C29.10813522 47.14952087 29.10297394 48.2225647 29.09765625 49.328125 C29.0962413 50.43226746 29.09482635 51.53640991 29.09336853 52.67401123 C29.08777258 56.19936842 29.07522079 59.72466202 29.0625 63.25 C29.05748448 65.64062408 29.05292166 68.03124916 29.04882812 70.421875 C29.03780447 76.28127449 29.02054257 82.14062646 29 88 C24.05 88 19.1 88 14 88 C13.97494385 86.49058838 13.9498877 84.98117676 13.92407227 83.42602539 C13.83019679 77.84813326 13.72992836 72.27037148 13.62768555 66.69262695 C13.58426122 64.27436361 13.54259188 61.8560681 13.50268555 59.43774414 C13.44516397 55.97011604 13.38141813 52.50265097 13.31640625 49.03515625 C13.29969376 47.94662857 13.28298126 46.85810089 13.26576233 45.73658752 C13.24581711 44.73562546 13.22587189 43.73466339 13.20532227 42.70336914 C13.18200584 41.37433311 13.18200584 41.37433311 13.15821838 40.01844788 C13.22018675 38.00362459 13.22018675 38.00362459 12 37 C8.58863524 36.9384058 8.58863524 36.9384058 5 38 C0.43185166 43.04327647 0.39933507 47.60749195 0.390625 54.2109375 C0.37408875 55.17907379 0.35755249 56.14721008 0.34051514 57.14468384 C0.29212655 60.22152102 0.2706842 63.29786426 0.25 66.375 C0.22183272 68.46747264 0.19190424 70.55992237 0.16015625 72.65234375 C0.08636978 77.76818849 0.03673912 82.8837605 0 88 C-4.95 88 -9.9 88 -15 88 C-15.02312269 76.80426756 -15.04091471 65.60854076 -15.05181217 54.41278934 C-15.05704116 49.21471885 -15.0641391 44.01666464 -15.07543945 38.81860352 C-15.08626776 33.80657732 -15.09227671 28.79456682 -15.09487724 23.78252983 C-15.09673159 21.86587718 -15.1003524 19.94922543 -15.10573006 18.03257942 C-15.11293975 15.35771928 -15.11399097 12.68292486 -15.11352539 10.00805664 C-15.11712067 9.2074884 -15.12071594 8.40692017 -15.12442017 7.58209229 C-15.11405216 2.11405216 -15.11405216 2.11405216 -14 1 C-12.5905802 0.76412603 -11.17131026 0.58574925 -9.75 0.4375 C-8.59757812 0.31181641 -8.59757812 0.31181641 -7.421875 0.18359375 C-4.95423998 -0.0034689 -2.47471514 0 0 0 Z " fill="#FBF8FD" transform="translate(1285,1165)"/>
<path d="M0 0 C4.95 0 9.9 0 15 0 C19.29 20.79 23.58 41.58 28 63 C29.77261473 61.22738527 29.7439133 58.61112578 30.19921875 56.2109375 C30.43624512 54.97287354 30.67327148 53.73480957 30.91748047 52.45922852 C31.17419931 51.09782762 31.43087137 49.7364179 31.6875 48.375 C31.95158094 46.98942475 32.21607173 45.60392756 32.48095703 44.21850586 C33.03657141 41.31084481 33.59036841 38.40284564 34.14306641 35.49462891 C35.4034862 28.87206284 36.68887125 22.25433004 37.97280884 15.6362915 C38.61567543 12.32152129 39.25698942 9.00645124 39.8984375 5.69140625 C40.26195312 3.81324219 40.62546875 1.93507813 41 0 C45.95 0 50.9 0 56 0 C55.404464 5.30873074 54.54693071 10.39976231 53.32592773 15.609375 C53.15997101 16.32255386 52.99401428 17.03573273 52.82302856 17.77052307 C52.28043171 20.09794211 51.73207021 22.42396021 51.18359375 24.75 C50.80352004 26.37516028 50.42381073 28.00040583 50.04444885 29.62573242 C49.05018862 33.88112585 48.05101495 38.13535053 47.05078125 42.38934326 C46.02890606 46.73933009 45.01172669 51.09041447 43.99414062 55.44140625 C42.00066357 63.96201415 40.00155606 72.4812863 38 81 C31.73 81 25.46 81 19 81 C17.7015461 77.75386524 16.68895692 75.10962358 15.921875 71.796875 C15.73375244 70.99475586 15.54562988 70.19263672 15.35180664 69.36621094 C15.15321045 68.50286133 14.95461426 67.63951172 14.75 66.75 C14.30632215 64.85408881 13.86229718 62.95825883 13.41796875 61.0625 C13.07064697 59.57363281 13.07064697 59.57363281 12.71630859 58.0546875 C11.51886428 52.94820378 10.28929563 47.84949534 9.0625 42.75 C8.81580566 41.71939453 8.56911133 40.68878906 8.31494141 39.62695312 C6.98907132 34.09065376 5.6477458 28.55863416 4.28515625 23.03125 C3.86834595 21.3282373 3.86834595 21.3282373 3.44311523 19.59082031 C2.90954019 17.41193612 2.37150085 15.23413887 1.82836914 13.05761719 C1.58852295 12.07438477 1.34867676 11.09115234 1.1015625 10.078125 C0.88838379 9.21606445 0.67520508 8.35400391 0.45556641 7.46582031 C0 5 0 5 0 0 Z " fill="#FDFAFD" transform="translate(610,1172)"/>
<path d="M0 0 C5.571845 5.04948453 9.46686097 10.70906623 10.23486328 18.33081055 C10.29324656 20.73016718 10.26308364 23.10094399 10.1875 25.5 C10.125625 28.305 10.06375 31.11 10 34 C-0.56 34 -11.12 34 -22 34 C-19.56845786 46.43633546 -19.56845786 46.43633546 -14 50 C-9.17377947 50.55382859 -6.34536318 50.47450127 -2.1875 47.9375 C-1.135625 47.298125 -0.08375 46.65875 1 46 C5.02550319 47.3418344 5.88285636 49.4227573 8 53 C8 53.66 8 54.32 8 55 C1.298153 60.30704636 -5.61378459 62.56786144 -14.12109375 62.37109375 C-20.7841891 61.51221443 -26.17355333 58.49014953 -30.4375 53.3125 C-35.31803672 45.72469592 -36.56250976 37.50796599 -36.5 28.625 C-36.49645508 27.71105469 -36.49291016 26.79710937 -36.48925781 25.85546875 C-36.24821089 16.003986 -33.46589723 8.48414877 -27 1 C-19.17628025 -4.47660382 -8.18720665 -5.03828102 0 0 Z " fill="#FCFAFE" transform="translate(1204,1193)"/>
<path d="M0 0 C1.39456452 0.00667256 2.78911118 0.01863093 4.18359375 0.03515625 C4.89451172 0.03966797 5.60542969 0.04417969 6.33789062 0.04882812 C8.09899388 0.06064761 9.86005411 0.07858362 11.62109375 0.09765625 C11.78714111 0.96342285 11.95318848 1.82918945 12.12426758 2.72119141 C12.75491148 6.00543962 13.38691653 9.28942034 14.01977539 12.57324219 C14.29080913 13.98101864 14.56133613 15.38889277 14.83129883 16.796875 C15.22466212 18.84793127 15.61966211 20.89866281 16.015625 22.94921875 C16.14647491 23.62801086 16.27732483 24.30680298 16.41213989 25.00616455 C17.52744654 30.73654202 18.7774734 36.43089194 20.0769043 42.12255859 C20.57853679 44.86499625 20.72830096 47.3192832 20.62109375 50.09765625 C21.28109375 50.09765625 21.94109375 50.09765625 22.62109375 50.09765625 C22.70359375 48.84984375 22.78609375 47.60203125 22.87109375 46.31640625 C23.65282142 38.51013984 25.416523 30.87858982 27.05957031 23.21777344 C27.62542112 20.57746435 28.18244228 17.9354018 28.73828125 15.29296875 C29.09454101 13.61317278 29.45129375 11.93348127 29.80859375 10.25390625 C29.97528564 9.46439575 30.14197754 8.67488525 30.3137207 7.8614502 C31.50505387 2.329736 31.50505387 2.329736 32.62109375 0.09765625 C37.24109375 0.09765625 41.86109375 0.09765625 46.62109375 0.09765625 C39.03384543 33.24195155 39.03384543 33.24195155 34.62109375 49.09765625 C34.43047363 49.79906738 34.23985352 50.50047852 34.04345703 51.22314453 C27.26118332 76.0951249 27.26118332 76.0951249 17.62109375 83.09765625 C12.63139995 85.72915361 8.30409147 87.35045864 2.62109375 87.09765625 C1.46334315 83.62440444 1.55242723 80.73698177 1.62109375 77.09765625 C2.2965625 76.80632812 2.97203125 76.515 3.66796875 76.21484375 C9.36103891 73.59866411 12.79172129 71.75640117 15.62109375 66.09765625 C16.11609375 64.61265625 16.11609375 64.61265625 16.62109375 63.09765625 C16.01096436 63.07147217 15.40083496 63.04528809 14.7722168 63.01831055 C12.62109375 62.09765625 12.62109375 62.09765625 11.32348633 59.24926758 C10.93106046 57.96086751 10.55920607 56.66610208 10.203125 55.3671875 C9.99661819 54.66084671 9.79011139 53.95450592 9.5773468 53.22676086 C7.13980935 44.72749562 5.03885173 36.13369948 2.97143555 27.53833008 C2.29819966 24.74198344 1.61544944 21.94807491 0.93164062 19.15429688 C0.49814618 17.36862343 0.06518284 15.58282096 -0.3671875 13.796875 C-0.57024002 12.96572678 -0.77329254 12.13457855 -0.98249817 11.27824402 C-1.73042827 8.1536333 -2.37890625 5.32286969 -2.37890625 2.09765625 C-3.03890625 1.76765625 -3.69890625 1.43765625 -4.37890625 1.09765625 C-3.37890625 0.09765625 -3.37890625 0.09765625 0 0 Z " fill="#FCFAFE" transform="translate(1574.37890625,1190.90234375)"/>
<path d="M0 0 C5.08084358 2.35896309 7.04671078 4.8190045 9 10 C9.40625532 14.06332086 9.34895696 18.09970359 9.29296875 22.1796875 C9.28872391 23.3475882 9.28447906 24.51548889 9.28010559 25.71878052 C9.263354 29.43775786 9.22570698 33.15618727 9.1875 36.875 C9.17244867 39.40103382 9.15876105 41.92707617 9.14648438 44.453125 C9.11346179 50.6356268 9.06170255 56.81772059 9 63 C4.38 63 -0.24 63 -5 63 C-5.02505615 61.52611816 -5.0501123 60.05223633 -5.07592773 58.53369141 C-5.16989152 53.08063621 -5.27013892 47.62771169 -5.37231445 42.17480469 C-5.41570516 39.81187999 -5.45737713 37.44892309 -5.49731445 35.0859375 C-5.55491693 31.69521364 -5.6186401 28.3046525 -5.68359375 24.9140625 C-5.70030624 23.85256989 -5.71701874 22.79107727 -5.73423767 21.69741821 C-5.75418289 20.71655243 -5.77412811 19.73568665 -5.79467773 18.72509766 C-5.81022202 17.85905914 -5.8257663 16.99302063 -5.84178162 16.10073853 C-5.87096592 13.94242107 -5.87096592 13.94242107 -7 12 C-9.78839304 11.49734308 -9.78839304 11.49734308 -13 12 C-16.81002283 15.39328521 -18.2825483 17.70191234 -18.65942383 22.81201172 C-18.7002636 24.68419217 -18.7147559 26.5570776 -18.70703125 28.4296875 C-18.72215256 29.42001984 -18.73727386 30.41035217 -18.75285339 31.43069458 C-18.79567805 34.57902896 -18.80456357 37.72640356 -18.8125 40.875 C-18.83564829 43.01565042 -18.86101432 45.15627809 -18.88867188 47.296875 C-18.95147297 52.53133466 -18.98384906 57.76519693 -19 63 C-23.95 63 -28.9 63 -34 63 C-34 42.54 -34 22.08 -34 1 C-29.71 1 -25.42 1 -21 1 C-20.34 2.98 -19.68 4.96 -19 7 C-18.55011719 6.4946875 -18.10023438 5.989375 -17.63671875 5.46875 C-12.13466473 -0.08843483 -7.7284815 -1.47715625 0 0 Z " fill="#FDFBFD" transform="translate(865,1190)"/>
<path d="M0 0 C4.62 0 9.24 0 14 0 C14.01981934 1.43311523 14.03963867 2.86623047 14.06005859 4.34277344 C14.13611059 9.65805685 14.22482895 14.97306636 14.31738281 20.28808594 C14.35567417 22.5888122 14.39052674 24.88959835 14.421875 27.19042969 C14.4675217 30.49696262 14.52551747 33.80308312 14.5859375 37.109375 C14.59748871 38.13867126 14.60903992 39.16796753 14.62094116 40.22845459 C14.64081085 41.18914856 14.66068054 42.14984253 14.68115234 43.13964844 C14.69447601 43.98348083 14.70779968 44.82731323 14.7215271 45.69671631 C15.0223118 48.18454361 15.75378638 49.84315599 17 52 C19.28694223 52.50379029 19.28694223 52.50379029 22 52 C25.82892204 48.56928017 27.2910485 46.24954978 27.65942383 41.09619141 C27.70027855 39.18168521 27.71475329 37.26648899 27.70703125 35.3515625 C27.72215256 34.33903412 27.73727386 33.32650574 27.75285339 32.28329468 C27.79568627 29.06363579 27.80456444 25.84491527 27.8125 22.625 C27.83564763 20.43617305 27.86101351 18.24736835 27.88867188 16.05859375 C27.95148119 10.70564636 27.98385085 5.35328329 28 0 C32.95 0 37.9 0 43 0 C43 20.46 43 40.92 43 62 C38.71 62 34.42 62 30 62 C30 59.69 30 57.38 30 55 C29.34 55 28.68 55 28 55 C27.5978125 55.8971875 27.5978125 55.8971875 27.1875 56.8125 C25.48725608 59.94452828 23.90779421 61.52088639 20.75 63.1875 C15.73150428 64.67023737 12.19325774 64.46516827 7.3125 62.5625 C2.98806306 59.77842789 1.44738863 55.80541189 0 51 C-0.50006261 46.97430115 -0.4688616 43.01633567 -0.390625 38.96484375 C-0.38496521 37.84557999 -0.37930542 36.72631622 -0.37347412 35.57313538 C-0.35123251 32.02747313 -0.30105731 28.48285252 -0.25 24.9375 C-0.22991929 22.52149905 -0.21167129 20.10548214 -0.1953125 17.68945312 C-0.1514075 11.7925725 -0.08246357 5.89646235 0 0 Z " fill="#FDFAFD" transform="translate(499,1191)"/>
<path d="M0 0 C4.48035444 2.19944673 6.86312614 4.50131818 9 9 C9.94661597 12.07291709 10.12162747 14.83552071 10.11352539 18.04394531 C10.11344986 19.04468079 10.11337433 20.04541626 10.11329651 21.07647705 C10.10813522 22.14952087 10.10297394 23.2225647 10.09765625 24.328125 C10.0962413 25.43226746 10.09482635 26.53640991 10.09336853 27.67401123 C10.08777258 31.19936842 10.07522079 34.72466202 10.0625 38.25 C10.05748448 40.64062408 10.05292166 43.03124916 10.04882812 45.421875 C10.03780447 51.28127449 10.02054257 57.14062646 10 63 C5.05 63 0.1 63 -5 63 C-5.02505615 61.49058838 -5.0501123 59.98117676 -5.07592773 58.42602539 C-5.16980321 52.84813326 -5.27007164 47.27037148 -5.37231445 41.69262695 C-5.41573878 39.27436361 -5.45740812 36.8560681 -5.49731445 34.43774414 C-5.55483603 30.97011604 -5.61858187 27.50265097 -5.68359375 24.03515625 C-5.70030624 22.94662857 -5.71701874 21.85810089 -5.73423767 20.73658752 C-5.75418289 19.73562546 -5.77412811 18.73466339 -5.79467773 17.70336914 C-5.81799416 16.37433311 -5.81799416 16.37433311 -5.84178162 15.01844788 C-5.77981325 13.00362459 -5.77981325 13.00362459 -7 12 C-9.87306228 11.49904977 -9.87306228 11.49904977 -13 12 C-16.52972781 15.62512585 -18.10559935 18.27996734 -18.20532227 23.26611328 C-18.22526749 24.14687531 -18.24521271 25.02763733 -18.26576233 25.93508911 C-18.29083107 27.36327469 -18.29083107 27.36327469 -18.31640625 28.8203125 C-18.33718735 29.79410858 -18.35796844 30.76790466 -18.37937927 31.77120972 C-18.44488598 34.88906647 -18.50376497 38.00700903 -18.5625 41.125 C-18.60568415 43.23568604 -18.6492984 45.34636333 -18.69335938 47.45703125 C-18.80056853 52.63793236 -18.90183283 57.81891999 -19 63 C-23.62 63 -28.24 63 -33 63 C-33 42.87 -33 22.74 -33 2 C-29.04 2 -25.08 2 -21 2 C-20.34 3.65 -19.68 5.3 -19 7 C-18.51789063 6.57847656 -18.03578125 6.15695312 -17.5390625 5.72265625 C-16.90742187 5.17480469 -16.27578125 4.62695312 -15.625 4.0625 C-14.68527344 3.24458984 -14.68527344 3.24458984 -13.7265625 2.41015625 C-9.62972395 -0.9359042 -5.07418444 -0.56120012 0 0 Z " fill="#FCFBFE" transform="translate(1360,1190)"/>
<path d="M0 0 C4.62 0 9.24 0 14 0 C14.01981934 1.5041748 14.03963867 3.00834961 14.06005859 4.55810547 C14.13596045 10.12305845 14.22470117 15.68774465 14.31738281 21.25244141 C14.35573647 23.66384628 14.3905779 26.07530962 14.421875 28.48681641 C14.46738703 31.94715313 14.52540404 35.40708508 14.5859375 38.8671875 C14.59748871 39.95055389 14.60903992 41.03392029 14.62094116 42.15011597 C14.64081085 43.1510025 14.66068054 44.15188904 14.68115234 45.18310547 C14.69447601 46.06690887 14.70779968 46.95071228 14.7215271 47.86129761 C14.80669004 50.2132825 14.80669004 50.2132825 17 52 C20.59865685 51.92176833 22.43546721 51.49700097 25.15722656 49.10083008 C27.8323168 44.59946268 27.60292228 40.59814806 27.609375 35.44921875 C27.62591125 34.43527542 27.64244751 33.42133209 27.65948486 32.37666321 C27.70796342 29.1468805 27.72933602 25.91756867 27.75 22.6875 C27.77815972 20.49411694 27.80808714 18.30075581 27.83984375 16.10742188 C27.91372275 10.73832001 27.96329859 5.36947952 28 0 C32.62 0 37.24 0 42 0 C42 20.46 42 40.92 42 62 C38.04 62 34.08 62 30 62 C29.34 60.02 28.68 58.04 28 56 C27.484375 56.763125 26.96875 57.52625 26.4375 58.3125 C22.68753434 62.44707752 18.91811759 63.7644417 13.4375 64.4375 C8.45823799 63.80377574 5.51993066 61.67716487 2.1875 58 C0.0241282 54.35642645 -0.12366798 50.95120848 -0.11352539 46.77246094 C-0.11344986 45.73168396 -0.11337433 44.69090698 -0.11329651 43.61859131 C-0.10813522 42.50179993 -0.10297394 41.38500854 -0.09765625 40.234375 C-0.0962413 39.08584045 -0.09482635 37.93730591 -0.09336853 36.75396729 C-0.08777143 33.08595169 -0.07521944 29.41799715 -0.0625 25.75 C-0.05748463 23.26302171 -0.05292178 20.77604247 -0.04882812 18.2890625 C-0.03780295 12.19268481 -0.02054027 6.09635276 0 0 Z " fill="#FEFDFE" transform="translate(1002,1191)"/>
<path d="M0 0 C5.28 0 10.56 0 16 0 C16.68707031 1.9284375 17.37414062 3.856875 18.08203125 5.84375 C18.75719612 7.73699583 19.43236584 9.63023993 20.10766602 11.5234375 C20.57241812 12.82673954 21.03694159 14.13012314 21.5012207 15.43359375 C23.95023966 22.3087729 26.40714627 29.17760747 29 36 C29.25168945 35.26475098 29.50337891 34.52950195 29.76269531 33.77197266 C30.92250789 30.38874303 32.08622824 27.00686967 33.25 23.625 C33.64574219 22.46871094 34.04148437 21.31242187 34.44921875 20.12109375 C36.78907823 13.33166542 39.27256019 6.64344285 42 0 C46.95 0 51.9 0 57 0 C56.26616485 2.93534059 55.52826123 5.3103994 54.35766602 8.04663086 C53.85693321 9.2232151 53.85693321 9.2232151 53.34608459 10.42356873 C52.98566574 11.26218948 52.62524689 12.10081024 52.25390625 12.96484375 C51.69714455 14.27032921 51.69714455 14.27032921 51.12913513 15.60218811 C49.94304833 18.3818275 48.75291242 21.15971072 47.5625 23.9375 C46.37649281 26.71206865 45.19131827 29.48699101 44.00657654 32.26210022 C43.26959177 33.98762167 42.53172438 35.71276647 41.79286194 37.43748474 C41.1347051 38.9756624 40.48019988 40.51541019 39.8302002 42.05705261 C39.17752115 43.58454086 38.48729616 45.09599063 37.78344727 46.60058594 C36.69829422 49.92401509 36.66937491 52.99781608 36.5859375 56.48828125 C36.56657135 57.19147995 36.5472052 57.89467865 36.5272522 58.6191864 C36.46779817 60.85017019 36.42120951 63.08120654 36.375 65.3125 C36.33678863 66.83140186 36.29773508 68.35028278 36.2578125 69.86914062 C36.16054963 73.5793139 36.08071394 77.28928263 36 81 C31.05 81 26.1 81 21 81 C21.18755859 78.23109375 21.18755859 78.23109375 21.37890625 75.40625 C22.27145329 49.49544116 13.17666941 28.35584903 1.25146484 5.67431641 C0 3 0 3 0 0 Z " fill="#FDFBFD" transform="translate(379,1172)"/>
<path d="M0 0 C16.83 0 33.66 0 51 0 C50 10 50 10 49 12 C43.39 12 37.78 12 32 12 C32 34.77 32 57.54 32 81 C27.38 81 22.76 81 18 81 C18 58.23 18 35.46 18 12 C12.06 12 6.12 12 0 12 C0 8.04 0 4.08 0 0 Z " fill="#FDFCFE" transform="translate(1113,1172)"/>
<path d="M0 0 C5.58661488 2.93747815 5.58661488 2.93747815 6.89453125 6.0234375 C7.046875 8.0234375 7.046875 8.0234375 5.109375 10.7734375 C4.42875 11.5159375 3.748125 12.2584375 3.046875 13.0234375 C0.89184221 12.56164476 -0.80819572 12.11143028 -2.703125 10.9609375 C-6.26450636 9.4770286 -9.10080141 9.71769753 -12.953125 10.0234375 C-15.166106 10.90214664 -15.166106 10.90214664 -15.953125 13.0234375 C-16.03079629 16.56367892 -16.03079629 16.56367892 -14.953125 20.0234375 C-11.79267883 22.96409245 -7.9674113 24.4835294 -4.078125 26.2734375 C6.99558299 31.7273745 6.99558299 31.7273745 9.046875 37.0234375 C9.95371828 43.28358146 10.05338328 48.86130861 7.359375 54.6484375 C1.39011054 60.77903343 -4.30406034 64.1061496 -12.953125 64.3984375 C-20.15812938 64.15532386 -26.40692451 61.5990529 -31.953125 57.0234375 C-31.953125 52.34252451 -30.95666629 51.40242146 -27.953125 48.0234375 C-25.24511859 48.56503878 -23.17039841 49.39264816 -20.640625 50.5859375 C-15.92314515 52.42495507 -12.24150745 53.02093754 -7.515625 50.9609375 C-5.64940248 48.98329852 -5.64940248 48.98329852 -5.453125 45.5859375 C-6.04681041 41.35592894 -6.73478943 40.69230114 -9.953125 38.0234375 C-12.84463369 36.48290784 -15.74866281 35.10060763 -18.73242188 33.75585938 C-23.68339554 31.42190523 -27.23884135 28.65200576 -30.2421875 24.046875 C-31.72622928 19.82306379 -31.46436239 15.42007902 -30.953125 11.0234375 C-28.59778064 6.13156844 -25.2357792 3.21264808 -20.953125 0.0234375 C-14.59717389 -2.09521287 -6.37608106 -2.10849241 0 0 Z " fill="#FDFBFD" transform="translate(727.953125,1190.9765625)"/>
<path d="M0 0 C4.52700386 2.36638838 6.17467469 5.81208877 8.203125 10.29296875 C12.11150925 23.56997995 11.67621727 41.54686987 6.6875 54.375 C4.67951894 57.4985261 3.25169686 59.16208438 0 61 C-4.45009619 61.79292623 -7.84950353 61.60025903 -11.875 59.5 C-14.62838005 56.26072935 -15.82997087 53.04766835 -17 49 C-17.17345947 48.41613525 -17.34691895 47.83227051 -17.52563477 47.23071289 C-18.55200121 42.40420224 -18.18476251 37.35128772 -18.1875 32.4375 C-18.19974609 31.30763672 -18.21199219 30.17777344 -18.22460938 29.01367188 C-18.25877354 9.23262049 -18.25877354 9.23262049 -13 3 C-8.97931656 -0.33142342 -5.03559733 -0.88020604 0 0 Z " fill="#BC6BD4" transform="translate(966,1182)"/>
<path d="M0 0 C1.71875 1.60546875 1.71875 1.60546875 3 3 C1.62845496 5.95409701 0.01136276 8.44008376 -2 11 C-4.38564077 10.42415568 -6.66682784 9.77772405 -9 9 C-13.99339062 8.49853048 -13.99339062 8.49853048 -18.3125 10.6875 C-22.30502054 16.15873185 -22.3367198 21.20096487 -22.3125 27.75 C-22.32861328 28.6059375 -22.34472656 29.461875 -22.36132812 30.34375 C-22.36575986 36.19364016 -21.73703764 41.73816443 -19 47 C-15.29873141 49.46751239 -13.37776468 49.30721156 -9 49 C-7.65909241 48.34870203 -6.32407669 47.68486725 -5 47 C-3 47.0625 -3 47.0625 -1 48 C1.25 50.5625 1.25 50.5625 3 53 C1.15413444 57.69491892 -1.79748367 58.96234158 -6.21875 61.0078125 C-12.74123297 63.33465333 -18.06417036 62.72608967 -24.3125 59.875 C-32.07141328 55.51592352 -35.49918365 49.31238067 -38 41 C-38.53017027 37.14637934 -38.56207403 33.38479948 -38.5 29.5 C-38.51546875 28.53191406 -38.5309375 27.56382813 -38.546875 26.56640625 C-38.49455517 16.82183754 -35.67709886 8.72969054 -28.90625 1.62890625 C-20.76782582 -5.32544392 -9.14398994 -4.40870943 0 0 Z " fill="#FCFBFE" transform="translate(1260,1193)"/>
<path d="M0 0 C0.33 25.08 0.66 50.16 1 76 C2.65 76.66 4.3 77.32 6 78 C7.64997163 81.61422357 8 83.99834806 8 88 C3.85747753 90.00849574 0.5849842 90.48262992 -4 90 C-9.08643801 87.26114877 -12.17004027 84.4898792 -14 79 C-14.09085515 76.49019126 -14.1260815 74.00880079 -14.11352539 71.49926758 C-14.11367142 70.73805099 -14.11381744 69.97683441 -14.1139679 69.19255066 C-14.11327124 66.6765152 -14.10549038 64.16055378 -14.09765625 61.64453125 C-14.09579119 59.90004008 -14.0943677 58.1555484 -14.09336853 56.41105652 C-14.08955026 51.81941278 -14.07972584 47.22780067 -14.06866455 42.63616943 C-14.05843561 37.95081002 -14.05386773 33.26544549 -14.04882812 28.58007812 C-14.03810298 19.38670485 -14.02103481 10.19335506 -14 1 C-11.85420251 0.83287252 -9.70836101 0.66631 -7.5625 0.5 C-5.77005859 0.36078125 -5.77005859 0.36078125 -3.94140625 0.21875 C-1 0 -1 0 0 0 Z " fill="#FDFDFE" transform="translate(1453,1165)"/>
<path d="M0 0 C-0.33 4.62 -0.66 9.24 -1 14 C-3.35125 14.2475 -3.35125 14.2475 -5.75 14.5 C-9.65514845 15.23686898 -9.65514845 15.23686898 -12.51953125 17.80859375 C-13.52043646 19.85163997 -14.31718432 21.8313087 -15 24 C-15.33 24.99 -15.66 25.98 -16 27 C-16.15370348 29.72883073 -16.25728265 32.43697142 -16.31640625 35.16796875 C-16.33718735 35.96278152 -16.35796844 36.7575943 -16.37937927 37.57649231 C-16.44472087 40.11340763 -16.50368808 42.65042573 -16.5625 45.1875 C-16.60569986 46.90821372 -16.64931463 48.62891708 -16.69335938 50.34960938 C-16.80038648 54.56630113 -16.90169724 58.7830962 -17 63 C-21.62 63 -26.24 63 -31 63 C-31 42.54 -31 22.08 -31 1 C-26.71 1 -22.42 1 -18 1 C-17.67 3.97 -17.34 6.94 -17 10 C-16.4225 8.906875 -15.845 7.81375 -15.25 6.6875 C-11.18353318 -0.26348481 -7.76046784 -0.34237358 0 0 Z " fill="#FEFDFE" transform="translate(586,1190)"/>
<path d="M0 0 C-0.14076315 1.9587043 -0.2877676 3.91696093 -0.4375 5.875 C-0.51871094 6.96554687 -0.59992188 8.05609375 -0.68359375 9.1796875 C-1 12 -1 12 -2 14 C-3.258125 14.103125 -4.51625 14.20625 -5.8125 14.3125 C-9.07767216 14.65712461 -9.81621072 14.83555696 -12.375 17.125 C-15.72915652 23.05927693 -16.31177381 28.90541442 -16.4140625 35.55859375 C-16.43342865 36.34774673 -16.4527948 37.13689972 -16.4727478 37.94996643 C-16.53204824 40.44570447 -16.5787285 42.94148989 -16.625 45.4375 C-16.66322551 47.13999296 -16.70227984 48.84246752 -16.7421875 50.54492188 C-16.83770828 54.69646341 -16.92191969 58.84809533 -17 63 C-21.62 63 -26.24 63 -31 63 C-31 42.87 -31 22.74 -31 2 C-27.04 2 -23.08 2 -19 2 C-18.34 4.31 -17.68 6.62 -17 9 C-16.13375 7.6078125 -16.13375 7.6078125 -15.25 6.1875 C-10.72801712 -0.21864241 -7.50800688 -0.43315424 0 0 Z " fill="#FEFDFE" transform="translate(1089,1190)"/>
<path d="M0 0 C4.95 0 9.9 0 15 0 C15 20.46 15 40.92 15 62 C10.05 62 5.1 62 0 62 C0 41.54 0 21.08 0 0 Z " fill="#FCF7FC" transform="translate(746,1191)"/>
<path d="M0 0 C4.95 0 9.9 0 15 0 C15 20.46 15 40.92 15 62 C10.05 62 5.1 62 0 62 C0 41.54 0 21.08 0 0 Z " fill="#FCF7FC" transform="translate(672,1191)"/>
<path d="M0 0 C3.74715325 3.45891069 4.84662154 6.57638799 5.16113281 11.54614258 C5.2066707 14.63504136 5.23524558 17.72329403 5.25 20.8125 C5.270625 21.88048828 5.29125 22.94847656 5.3125 24.04882812 C5.34711062 31.04449917 5.03530926 36.53107513 0.25 42 C-3.16349988 43.51711106 -5.45456105 42.9669379 -9 42 C-12.74368533 38.64359246 -13.78742428 33.45245247 -14.20874023 28.59179688 C-14.30403126 25.91252664 -14.32202694 23.24338177 -14.3125 20.5625 C-14.32861328 19.65951172 -14.34472656 18.75652344 -14.36132812 17.82617188 C-14.36564141 11.8695202 -13.59516081 7.39088439 -11 2 C-7.34307497 -0.43795002 -4.25319464 -0.84892393 0 0 Z " fill="#976AEB" transform="translate(1495,1201)"/>
<path d="M0 0 C3.07947567 0.04407121 3.96955694 0.15764572 6.5625 2 C10.82943465 8.07217624 10.5538416 13.9601756 10.5625 21.125 C10.58699219 22.18009766 10.61148437 23.23519531 10.63671875 24.32226562 C10.66213001 31.11977762 9.88906023 35.55971415 6.1875 41.3125 C3.1875 43.3125 3.1875 43.3125 -0.3125 43.1875 C-3.8125 42.3125 -3.8125 42.3125 -5.625 40.5625 C-9.03501202 34.10142458 -9.17879646 28.70217838 -9.1875 21.5 C-9.21199219 20.44490234 -9.23648437 19.38980469 -9.26171875 18.30273438 C-9.28719019 11.48912433 -8.40598941 7.12954704 -4.8125 1.3125 C-3.8125 0.3125 -3.8125 0.3125 0 0 Z " fill="#9D6BE7" transform="translate(1403.8125,1200.6875)"/>
<path d="M0 0 C3.27469638 0.05858133 3.94789261 0.17322536 6.5625 2.375 C9.91071758 8.55632477 10.55342767 14.90854471 10.5 21.8125 C10.49371582 22.92564575 10.49371582 22.92564575 10.48730469 24.0612793 C10.34745149 30.84936665 9.34790993 36.32062734 5.375 41.9375 C2.32710009 43.94040565 0.76313159 44.10472073 -2.8125 43.375 C-9.70961883 36.47788117 -9.05282564 30.28638262 -9.125 21.0625 C-9.15400391 19.83853516 -9.18300781 18.61457031 -9.21289062 17.35351562 C-9.29163766 6.21383896 -9.29163766 6.21383896 -4.8125 1.375 C-3.8125 0.375 -3.8125 0.375 0 0 Z " fill="#C96DCD" transform="translate(795.8125,1200.625)"/>
<path d="M0 0 C2.95298764 0.09094346 3.96271467 0.26823334 6.5 1.9375 C10.47238365 7.89607548 10.46349094 14.38331665 10.4375 21.3125 C10.45361328 22.16779297 10.46972656 23.02308594 10.48632812 23.90429688 C10.49151319 30.70191831 9.39392422 36.24544935 5.3125 41.875 C3.125 43.375 3.125 43.375 0.1875 44 C-2.875 43.375 -2.875 43.375 -5.6875 40.6875 C-9.70917371 34.59753696 -9.08931981 28.08251815 -9.125 21 C-9.145625 19.98421875 -9.16625 18.9684375 -9.1875 17.921875 C-9.21858574 11.93786965 -8.79741029 7.63817581 -5.875 2.375 C-3.875 0.375 -3.875 0.375 0 0 Z " fill="#E06EBF" transform="translate(463.875,1200.625)"/>
<path d="M0 0 C2.5 1.5 2.5 1.5 4 4 C4.75783894 11.44060047 2.46361253 17.54195921 0 24.5 C-0.3815625 25.60859375 -0.763125 26.7171875 -1.15625 27.859375 C-2.09332506 30.57689267 -3.04143174 33.29000516 -4 36 C-6.97 36 -9.94 36 -13 36 C-12.7834375 34.98679687 -12.566875 33.97359375 -12.34375 32.9296875 C-12.06218801 31.57818996 -11.7809555 30.22662375 -11.5 28.875 C-11.35691406 28.20984375 -11.21382812 27.5446875 -11.06640625 26.859375 C-10.24026962 22.84671137 -9.70183292 19.09523357 -10 15 C-10.515625 14.360625 -11.03125 13.72125 -11.5625 13.0625 C-13 11 -13 11 -12.9375 7.5 C-11.02908 0.375232 -6.94375678 -1.36598494 0 0 Z " fill="#FDFBFD" transform="translate(897,1237)"/>
<path d="M0 0 C1.6796875 1.0703125 1.6796875 1.0703125 3 3 C3.35356726 5.72836065 3.5098241 8.14881341 3.5 10.875 C3.52835938 11.58269531 3.55671875 12.29039063 3.5859375 13.01953125 C3.60073017 16.99136273 3.13501861 18.82424696 0.6953125 22 C-2 24 -2 24 -5.625 24.125 C-9 23 -9 23 -10.6796875 20.8671875 C-13.15184384 15.49865864 -12.722294 9.771473 -12 4 C-9.63303602 -1.54395562 -5.34217465 -1.58286656 0 0 Z " fill="#946BED" transform="translate(1549,1200)"/>
<path d="M0 0 C2.90717073 2.21863029 3.83981643 3.51944929 5 7 C5.13143471 10.33844165 5.04340976 13.65744868 5 17 C-0.94 17 -6.88 17 -13 17 C-12.02274795 6.08735214 -12.02274795 6.08735214 -8.8125 1.1875 C-5.83456529 -0.76356067 -3.45191537 -0.42391943 0 0 Z " fill="#AC6ADD" transform="translate(1195,1200)"/>
<path d="M0 0 C2.12890625 0.41015625 2.12890625 0.41015625 4.69140625 1.91015625 C6.73743653 5.46846977 6.77069524 8.40308908 6.12890625 12.41015625 C5.19140625 14.84765625 5.19140625 14.84765625 3.12890625 16.41015625 C0.06234533 17.36734867 -2.66898221 17.72980661 -5.87109375 17.41015625 C-8.93359375 15.41015625 -8.93359375 15.41015625 -10.87109375 12.41015625 C-11.52731612 8.32699482 -11.24891052 6.1822166 -9.43359375 2.47265625 C-6.17032224 -0.15387935 -4.10040419 -0.26345266 0 0 Z " fill="#FDFAFD" transform="translate(681.87109375,1160.58984375)"/>
<path d="M0 0 C2.12890625 0.41015625 2.12890625 0.41015625 4.69140625 1.91015625 C6.73743653 5.46846977 6.77069524 8.40308908 6.12890625 12.41015625 C5.19140625 14.84765625 5.19140625 14.84765625 3.12890625 16.41015625 C0.04528552 17.4261469 -2.64112352 17.83440803 -5.87109375 17.41015625 C-9.27335116 14.56336944 -10.63120946 12.71619294 -11.43359375 8.34765625 C-10.10131066 1.39017788 -6.67144419 -0.42864304 0 0 Z " fill="#FDFAFD" transform="translate(755.87109375,1160.58984375)"/>
</svg>
